<svg xmlns="http://www.w3.org/2000/svg" height="683" viewBox="-47 0 512 512" width="683"><g stroke-width="2.25"><g stroke="#285f70"><path d="M305.44 71.637V0H137.23c-21.867 0-39.445 18.02-39.445 39.883V375.43c0 21.867 17.582 39.883 39.445 39.883h240.836c21.867 0 39.445-18.02 39.445-39.883V117.563h-65.484c-25.488 0-46.586-20.547-46.586-45.926z" fill="#0096ff"/><path d="M31.863 423.773V97.785C13.184 101.4 0 117.453 0 136.57v335.547C0 493.98 17.578 512 39.445 512H280.28c18.8 0 34.5-13.184 38.566-30.766H88.887c-31.535 0-57.023-25.93-57.023-57.46zm48.344-48.343V49.664C62.625 53.617 49.44 69.438 49.44 88.227v335.547c0 21.863 17.582 39.883 39.445 39.883H329.72c18.8 0 34.5-13.184 38.566-30.762H137.23c-31.535 0-57.023-25.93-57.023-57.465zm0 0" fill="#307082"/><path d="M352.027 99.984h53.945l-82.95-86.47v58.12c0 15.71 13.184 28.348 29.004 28.348zm0 0" fill="#0096ff"/></g><path d="M375.042 267.96c-7.363-9.202-16.772-15.166-28.236-17.896 3.618-5.46 5.42-11.535 5.42-18.227 0-9.334-3.307-17.303-9.917-23.908s-14.6-9.905-23.936-9.905c-8.376 0-15.693 2.73-21.95 8.2-5.2-12.68-13.512-22.85-24.928-30.51s-24.002-11.493-37.757-11.493c-18.7 0-34.648 6.606-47.873 19.815S166.03 213.17 166.03 231.84c0 1.144.088 3.038.264 5.68-10.403 4.844-18.7 12.107-24.863 21.793s-9.256 20.253-9.256 31.702c0 16.29 5.798 30.223 17.4 41.802s25.545 17.37 41.856 17.37h143.886c14.016 0 25.984-4.955 35.903-14.86s14.878-21.858 14.878-35.86c-.001-11.8-3.683-22.3-11.047-31.504zm-74.852-3.564c-.84.835-1.83 1.252-2.974 1.252h-29.623v46.496c0 1.143-.418 2.134-1.256 2.97s-1.83 1.254-2.974 1.254H237.97c-1.146 0-2.138-.415-2.975-1.254s-1.256-1.827-1.256-2.97V265.65h-29.623c-1.233 0-2.248-.396-3.04-1.185s-1.19-1.806-1.19-3.038c0-1.058.44-2.115 1.32-3.17l46.42-46.36c.793-.793 1.808-1.19 3.042-1.19s2.25.396 3.042 1.19l46.55 46.492c.794.792 1.187 1.805 1.187 3.04 0 1.142-.42 2.137-1.255 2.97z" fill="#fff" stroke="#005997"/></g></svg>