<svg xmlns="http://www.w3.org/2000/svg" height="683" viewBox="-47 0 512 512" width="683"><g stroke-width="2.25"><g stroke="#285f70"><path d="M305.44 71.637V0H137.23c-21.867 0-39.445 18.02-39.445 39.883V375.43c0 21.867 17.582 39.883 39.445 39.883h240.836c21.867 0 39.445-18.02 39.445-39.883V117.563h-65.484c-25.488 0-46.586-20.547-46.586-45.926z" fill="#d40000"/><path d="M31.863 423.773V97.785C13.184 101.4 0 117.453 0 136.57v335.547C0 493.98 17.578 512 39.445 512H280.28c18.8 0 34.5-13.184 38.566-30.766H88.887c-31.535 0-57.023-25.93-57.023-57.46zm48.344-48.343V49.664C62.625 53.617 49.44 69.438 49.44 88.227v335.547c0 21.863 17.582 39.883 39.445 39.883H329.72c18.8 0 34.5-13.184 38.566-30.762H137.23c-31.535 0-57.023-25.93-57.023-57.465zm0 0" fill="#307082"/><path d="M352.027 99.984h53.945l-82.95-86.47v58.12c0 15.71 13.184 28.348 29.004 28.348zm0 0" fill="#d40000"/></g><path d="M188.4 376.982l69.247-69.247 69.247 69.247 50.39-50.4-69.247-69.247 69.247-69.247-50.39-50.4-69.247 69.247L188.4 137.71l-50.39 50.4 69.247 69.247-69.247 69.247z" fill="#fff" stroke="#ac1515"/></g></svg>