<svg xmlns="http://www.w3.org/2000/svg" viewBox="0 0 512 512"><g stroke-width="3"><path d="M288 39.056v16.66c0 10.804 7.28 20.16 17.686 23.066C383.204 100.434 440 171.518 440 256c0 101.69-82.295 184-184 184-101.69 0-184-82.295-184-184 0-84.47 56.786-155.564 134.312-177.22C216.72 75.874 224 66.517 224 55.712V39.064c0-15.71-14.834-27.153-30.046-23.234C86.603 43.482 7.394 141.206 8.003 257.332 8.723 394.384 119.48 504.288 256.534 504 393.255 503.71 504 392.788 504 256c0-115.633-79.14-212.78-186.21-240.236C302.678 11.89 288 23.456 288 39.056z" fill="#307082" stroke="#285f70"/><path d="M343.796 125.72H168.203c-6.927 0-12.542 5.615-12.542 12.542v8.362c0 6.927 5.615 12.542 12.542 12.542 0 47.538 26.66 87.658 63.152 100.34-36.49 12.68-63.152 52.8-63.152 100.34-6.927 0-12.542 5.615-12.542 12.542v8.362c0 6.927 5.615 12.542 12.542 12.542h175.593c6.927 0 12.542-5.615 12.542-12.542v-8.362c0-6.927-5.615-12.542-12.542-12.542 0-47.538-26.66-87.658-63.152-100.34 36.49-12.68 63.152-52.8 63.152-100.34 6.927 0 12.542-5.615 12.542-12.542v-8.362c0-6.927-5.615-12.542-12.542-12.542zM304.56 326.398h-97.12c8.915-24.456 27.225-41.808 48.56-41.808s39.645 17.348 48.56 41.808zm.01-133.785H207.44c-3.705-10.166-5.79-21.558-5.79-33.446h108.7c0 11.918-2.084 23.3-5.78 33.446z" fill="#3f9db1" stroke="#307082"/></g></svg>