<svg xmlns="http://www.w3.org/2000/svg" viewBox="0 0 512 512"><g stroke-width="3"><path d="M288 39.056v16.66c0 10.804 7.28 20.16 17.686 23.066C383.204 100.434 440 171.518 440 256c0 101.69-82.295 184-184 184-101.69 0-184-82.295-184-184 0-84.47 56.786-155.564 134.312-177.22C216.72 75.874 224 66.517 224 55.712V39.064c0-15.71-14.834-27.153-30.046-23.234C86.603 43.482 7.394 141.206 8.003 257.332 8.723 394.384 119.48 504.288 256.534 504 393.255 503.71 504 392.788 504 256c0-115.633-79.14-212.78-186.21-240.236C302.678 11.89 288 23.456 288 39.056z" fill="#307082" stroke="#285f70"/><path d="M256 247.505c36.504 0 66.1-29.585 66.1-66.1s-29.585-66.1-66.1-66.1-66.1 29.585-66.1 66.1 29.585 66.1 66.1 66.1zm46.263 16.522h-8.623c-11.462 5.267-24.216 8.26-37.64 8.26s-26.126-2.995-37.64-8.26h-8.623c-38.31 0-69.394 31.083-69.394 69.394v21.48c0 13.683 11.1 24.784 24.784 24.784h181.746c13.683 0 24.784-11.1 24.784-24.784v-21.48c0-38.31-31.083-69.394-69.394-69.394z" fill="#3f9db1" stroke="#307082"/></g></svg>