<svg xmlns="http://www.w3.org/2000/svg" viewBox="0 0 512 512"><g stroke-width="3"><path d="M288 39.056v16.66c0 10.804 7.28 20.16 17.686 23.066C383.204 100.434 440 171.518 440 256c0 101.69-82.295 184-184 184-101.69 0-184-82.295-184-184 0-84.47 56.786-155.564 134.312-177.22C216.72 75.874 224 66.517 224 55.712V39.064c0-15.71-14.834-27.153-30.046-23.234C86.603 43.482 7.394 141.206 8.003 257.332 8.723 394.384 119.48 504.288 256.534 504 393.255 503.71 504 392.788 504 256c0-115.633-79.14-212.78-186.21-240.236C302.678 11.89 288 23.456 288 39.056z" fill="#307082" stroke="#285f70"/><path d="M370.146 282.18l22.08-94.893c1.594-6.85-3.737-13.376-10.93-13.376H197.848l-4.28-20.443c-1.067-5.095-5.657-8.755-10.982-8.755H134.7c-6.19 0-11.21 4.902-11.21 10.95v7.3c0 6.047 5.018 10.95 11.21 10.95h32.638l32.81 156.68c-7.85 4.41-13.138 12.677-13.138 22.156 0 14.1 11.7 25.548 26.154 25.548s26.154-11.438 26.154-25.548c0-7.15-3.01-13.61-7.858-18.25h97.914c-4.846 4.637-7.857 11.098-7.857 18.25 0 14.1 11.7 25.548 26.154 25.548s26.154-11.438 26.154-25.548c0-10.115-6.02-18.856-14.75-22.995l2.577-11.075c1.594-6.85-3.737-13.376-10.93-13.376H225.36l-3.057-14.6h136.91c5.234 0 9.77-3.537 10.93-8.523z" fill="#3f9db1" stroke="#307082"/></g></svg>