<svg xmlns="http://www.w3.org/2000/svg" viewBox="0 0 512 512"><g stroke-width="3"><path d="M288 39.056v16.66c0 10.804 7.28 20.16 17.686 23.066C383.204 100.434 440 171.518 440 256c0 101.69-82.295 184-184 184-101.69 0-184-82.295-184-184 0-84.47 56.786-155.564 134.312-177.22C216.72 75.874 224 66.517 224 55.712V39.064c0-15.71-14.834-27.153-30.046-23.234C86.603 43.482 7.394 141.206 8.003 257.332 8.723 394.384 119.48 504.288 256.534 504 393.255 503.71 504 392.788 504 256c0-115.633-79.14-212.78-186.21-240.236C302.678 11.89 288 23.456 288 39.056z" fill="#307082" stroke="#285f70"/><path d="M371.39 188.218l-46.105-46.105a26.383 26.383 0 0 0-18.655-7.727H159.264c-14.57 0-26.383 11.812-26.383 26.383V354.24c0 14.57 11.812 26.383 26.383 26.383h193.472c14.57 0 26.383-11.812 26.383-26.383V206.874a26.383 26.383 0 0 0-7.727-18.655zM256 345.447c-19.427 0-35.177-15.75-35.177-35.177s15.75-35.177 35.177-35.177 35.177 15.75 35.177 35.177-15.75 35.177-35.177 35.177zm52.765-167.375v55.25a6.6 6.6 0 0 1-6.596 6.596H174.654a6.6 6.6 0 0 1-6.596-6.596V176.16a6.6 6.6 0 0 1 6.596-6.596h125.603c1.75 0 3.427.695 4.664 1.932l1.913 1.913a6.593 6.593 0 0 1 1.932 4.664z" fill="#3f9db1" stroke="#307082"/></g></svg>