<svg xmlns="http://www.w3.org/2000/svg" viewBox="0 0 512 512"><g stroke-width="3"><path d="M288 39.056v16.66c0 10.804 7.28 20.16 17.686 23.066C383.204 100.434 440 171.518 440 256c0 101.69-82.295 184-184 184-101.69 0-184-82.295-184-184 0-84.47 56.786-155.564 134.312-177.22C216.72 75.874 224 66.517 224 55.712V39.064c0-15.71-14.834-27.153-30.046-23.234C86.603 43.482 7.394 141.206 8.003 257.332 8.723 394.384 119.48 504.288 256.534 504 393.255 503.71 504 392.788 504 256c0-115.633-79.14-212.78-186.21-240.236C302.678 11.89 288 23.456 288 39.056z" fill="#307082" stroke="#285f70"/><path d="M360.1 310.072V140.24c0-6.722-5.26-12.13-11.797-12.13h-161.22c-26.05 0-47.186 21.734-47.186 48.523v161.743c0 26.79 21.136 48.523 47.186 48.523h161.22c6.537 0 11.797-5.408 11.797-12.13v-8.087c0-3.79-1.72-7.228-4.375-9.452-2.064-7.784-2.064-29.973 0-37.757 2.654-2.173 4.375-5.6 4.375-9.4zM202.813 195.84c0-1.668 1.327-3.033 2.95-3.033h104.203c1.622 0 2.95 1.365 2.95 3.033v10.11c0 1.668-1.327 3.033-2.95 3.033H205.762c-1.622 0-2.95-1.365-2.95-3.033zm0 32.35c0-1.668 1.327-3.033 2.95-3.033h104.203c1.622 0 2.95 1.365 2.95 3.033v10.11c0 1.668-1.327 3.033-2.95 3.033H205.762c-1.622 0-2.95-1.365-2.95-3.033zM327.366 354.55h-140.28c-8.7 0-15.73-7.228-15.73-16.174 0-8.896 7.078-16.174 15.73-16.174h140.28c-.934 8.643-.934 23.706 0 32.35z" fill="#3f9db1" stroke="#307082"/></g></svg>