<svg xmlns="http://www.w3.org/2000/svg" viewBox="0 0 512 512"><g stroke-width="3"><path d="M288 39.056v16.66c0 10.804 7.28 20.16 17.686 23.066C383.204 100.434 440 171.518 440 256c0 101.69-82.295 184-184 184-101.69 0-184-82.295-184-184 0-84.47 56.786-155.564 134.312-177.22C216.72 75.874 224 66.517 224 55.712V39.064c0-15.71-14.834-27.153-30.046-23.234C86.603 43.482 7.394 141.206 8.003 257.332 8.723 394.384 119.48 504.288 256.534 504 393.255 503.71 504 392.788 504 256c0-115.633-79.14-212.78-186.21-240.236C302.678 11.89 288 23.456 288 39.056z" fill="#307082" stroke="#285f70"/><path d="M388.543 222.42c2.1-1.668 5.22-.108 5.22 2.53v110.05c0 14.26-11.57 25.83-25.83 25.83H144.068c-14.26 0-25.83-11.57-25.83-25.83V225.002c0-2.69 3.067-4.197 5.22-2.53 12.054 9.364 28.037 21.256 82.927 61.132 11.355 8.287 30.512 25.723 49.616 25.615 19.21.16 38.746-17.65 49.67-25.615l82.873-61.186zM256 291.946c12.485.215 30.458-15.714 39.5-22.28l93.313-69.258c3.12-2.422 4.95-6.19 4.95-10.17v-10.225c0-14.26-11.57-25.83-25.83-25.83H144.068c-14.26 0-25.83 11.57-25.83 25.83v10.225c0 3.982 1.83 7.695 4.95 10.17 16.467 12.86 21.902 17.436 93.313 69.258 9.04 6.565 27.014 22.494 39.5 22.28z" fill="#3f9db1" stroke="#307082"/></g></svg>