<svg xmlns="http://www.w3.org/2000/svg" viewBox="0 0 512 512"><g stroke-width="3"><path d="M288 39.056v16.66c0 10.804 7.28 20.16 17.686 23.066C383.204 100.434 440 171.518 440 256c0 101.69-82.295 184-184 184-101.69 0-184-82.295-184-184 0-84.47 56.786-155.564 134.312-177.22C216.72 75.874 224 66.517 224 55.712V39.064c0-15.71-14.834-27.153-30.046-23.234C86.603 43.482 7.394 141.206 8.003 257.332 8.723 394.384 119.48 504.288 256.534 504 393.255 503.71 504 392.788 504 256c0-115.633-79.14-212.78-186.21-240.236C302.678 11.89 288 23.456 288 39.056z" fill="#307082" stroke="#285f70"/><path d="M349.367 383.217V135.793c0-3.85-3.15-7.003-7.003-7.003h-28c-3.85 0-7.003 3.15-7.003 7.003V238.73L193.268 133.11c-12.02-9.98-30.636-1.634-30.636 14.355v224.082c0 15.99 18.615 24.334 30.636 14.355l114.083-104.98v102.296c0 3.85 3.15 7.003 7.003 7.003h28c3.85 0 7.003-3.15 7.003-7.003z" fill="#3f9db1" stroke="#307082"/></g></svg>