<svg xmlns="http://www.w3.org/2000/svg" viewBox="0 0 512 512"><g stroke-width="3"><path d="M288 39.056v16.66c0 10.804 7.28 20.16 17.686 23.066C383.204 100.434 440 171.518 440 256c0 101.69-82.295 184-184 184-101.69 0-184-82.295-184-184 0-84.47 56.786-155.564 134.312-177.22C216.72 75.874 224 66.517 224 55.712V39.064c0-15.71-14.834-27.153-30.046-23.234C86.603 43.482 7.394 141.206 8.003 257.332 8.723 394.384 119.48 504.288 256.534 504 393.255 503.71 504 392.788 504 256c0-115.633-79.14-212.78-186.21-240.236C302.678 11.89 288 23.456 288 39.056z" fill="#307082" stroke="#285f70"/><path d="M334.644 115.675H177.356v110.102h157.288zm-15.73 94.373h-125.83v-78.644h125.83zm31.458 15.728v15.73H161.627v-15.73c-17.372 0-31.458 14.085-31.458 31.458v94.373c0 8.694 7.035 15.73 15.73 15.73h220.2c8.694 0 15.73-7.035 15.73-15.73v-94.373c0-17.372-14.085-31.458-31.458-31.458zm-15.73 110.102c0 8.694-7.035 15.73-15.73 15.73h-125.83c-8.694 0-15.73-7.035-15.73-15.73v-15.73H334.64zm23.593-47.186h-15.73a7.86 7.86 0 0 1 0-15.729h15.73a7.86 7.86 0 1 1 0 15.729zm-149.422-141.56h94.373v15.73h-94.373zm0 31.468h94.373v15.73h-94.373z" fill="#3f9db1" stroke="#307082"/></g></svg>