<svg xmlns="http://www.w3.org/2000/svg" width="512" height="512"><path d="M506.856 79.636V191.85c0 18.816-22.612 28.04-35.687 14.88l-31.102-31.31-212.116 213.514a20.81 20.81 0 0 1-29.564 0l-19.71-19.84c-8.164-8.218-8.164-21.542 0-29.758L390.797 125.82l-31.098-31.305c-13.127-13.214-3.83-35.922 14.782-35.922h111.47c11.545 0 20.905 9.42 20.905 21.042zm-147.18 216.382l-13.936 14.028a20.904 21.042 0 0 0-6.122 14.88v126.46H60.89V170.82H290.84a20.907 21.045 0 0 0 14.781-6.163l13.936-14.028c13.17-13.257 3.842-35.922-14.78-35.922H46.953c-23.09 0-41.81 18.842-41.81 42.085v308.624c0 23.243 18.718 42.085 41.81 42.085h306.602c23.09 0 41.81-18.842 41.81-42.085v-154.52c0-18.747-22.518-28.136-35.687-14.88z" fill="#307082" stroke="#285f70" stroke-width="3"/></svg>