<svg xmlns="http://www.w3.org/2000/svg" width="512" height="512"><path d="M508.773 78.36v113.07c0 18.96-22.785 28.254-35.96 14.994l-31.34-31.548-213.737 215.148a20.97 20.97 0 0 1-29.79 0l-19.86-20c-8.227-8.28-8.227-21.707 0-29.986l213.74-215.15-31.336-31.544c-13.228-13.315-3.86-36.197 14.895-36.197H487.71c11.634 0 21.064 9.493 21.064 21.204zM360.47 296.4l-14.043 14.136a21.064 21.203 0 0 0-6.169 14.994v127.43H59.398V170.243h231.71a21.067 21.206 0 0 0 14.894-6.21l14.043-14.135c13.27-13.358 3.87-36.197-14.894-36.197H45.355c-23.267 0-42.13 18.986-42.13 42.407v310.985c0 23.42 18.862 42.407 42.13 42.407H354.3c23.267 0 42.13-18.986 42.13-42.407v-155.7c0-18.89-22.7-28.35-35.96-14.993z" fill="#673802" stroke="#593001" stroke-width="3"/></svg>