<svg xmlns="http://www.w3.org/2000/svg" viewBox="0 0 512 512"><circle cx="294.32" cy="44" r="34" fill="#C1EE92"/><path d="M367.883 168c0-25.957-21.043-47-47-47s-47 21.043-47 47h94z" fill="#FF5D5D"/><circle cx="170.37" cy="134" r="34" fill="#FED284"/><path d="M433.797 168h-347.2c-8.005 0-12.765 8.938-8.298 15.58l135.898 202.086V502l92-40.063v-76.27L442.095 183.58c4.467-6.642-.293-15.58-8.298-15.58z" fill="#65b1c7"/><path d="M433.797 168h-347.2c-8.005 0-12.765 8.938-8.298 15.58L100.1 216h320.192l21.802-32.42c4.467-6.642-.293-15.58-8.298-15.58z" fill="#D9F9F7"/><g fill="#4d4d4d"><path d="M451.45 168.6A19.96 19.96 0 0 0 433.797 158h-56.8c-4.743-26.675-28.087-47-56.104-47s-51.36 20.325-56.104 47h-57.555c4.514-6.908 7.15-15.15 7.15-24 0-24.262-19.738-44-44-44s-44 19.738-44 44c0 8.85 2.636 17.092 7.15 24H86.598a19.96 19.96 0 0 0-17.652 10.599c-3.48 6.537-3.077 14.416 1.056 20.562l134.196 199.556V502c0 3.372 1.7 6.517 4.52 8.364a10 10 0 0 0 5.481 1.636 9.99 9.99 0 0 0 3.992-.832l92-40.063a10 10 0 0 0 6.007-9.168v-73.22L450.393 189.16a19.96 19.96 0 0 0 1.056-20.561zM320.883 131c16.937 0 31.24 11.443 35.616 27h-71.23c4.374-15.557 18.68-27 35.615-27zm-174.508 3c0-13.233 10.767-24 24-24s24 10.767 24 24-10.767 24-24 24-24-10.767-24-24zM297.9 380.086a10 10 0 0 0-1.702 5.58v69.72l-72 31.353v-91.072h36.127a10 10 0 1 0 0-20h-40.8L118.88 226h202.003a10 10 0 1 0 0-20H105.43l-18.83-28h347.194L297.9 380.086z" stroke="#4d4d4d"/><path d="M294.324 88c24.262 0 44-19.738 44-44s-19.738-44-44-44-44 19.738-44 44 19.74 44 44 44zm0-68c13.233 0 24 10.767 24 24s-10.767 24-24 24-24-10.767-24-24 10.767-24 24-24zm106.873 105.168a10 10 0 0 0 10-10V58.333a10 10 0 1 0-20 0v56.834a10 10 0 0 0 10 10zm0-89.668c2.63 0 5.2-1.07 7.07-2.93s2.93-4.44 2.93-7.07-1.07-5.2-2.93-7.07-4.44-2.93-7.07-2.93-5.2 1.07-7.07 2.93-2.93 4.44-2.93 7.07 1.07 5.2 2.93 7.07 4.44 2.93 7.07 2.93zM204.375 73.755a10 10 0 0 0 10-10v-41a10 10 0 1 0-20 0v41a10 10 0 0 0 10 10zM68.197 85.168a10 10 0 0 0 10-10V10a10 10 0 1 0-20 0v65.168a10 10 0 0 0 10 10zm7.07 34.572c1.86-1.86 2.93-4.44 2.93-7.07a10.06 10.06 0 0 0-2.93-7.07c-1.86-1.87-4.44-2.93-7.07-2.93a10.05 10.05 0 0 0-7.07 2.93 10.06 10.06 0 0 0-2.93 7.07c0 2.63 1.07 5.2 2.93 7.07s4.44 2.93 7.07 2.93 5.2-1.07 7.07-2.93zm283 89.2c-1.87 1.86-2.93 4.44-2.93 7.07a10.05 10.05 0 0 0 2.93 7.07 10.06 10.06 0 0 0 7.07 2.93c2.63 0 5.2-1.07 7.07-2.93 1.86-1.86 2.93-4.44 2.93-7.07s-1.07-5.2-2.93-7.07-4.44-2.93-7.07-2.93a10.04 10.04 0 0 0-7.07 2.93z"/></g></svg>