<svg xmlns="http://www.w3.org/2000/svg" viewBox="0 0 426.686 426.686" width="512" height="512"><path d="M214.055 152.113c-3.86-3.858-10.112-3.858-13.972 0L85.427 266.768c-3.858 3.858-3.858 10.113 0 13.972a9.85 9.85 0 0 0 13.971 0l114.656-114.656a9.88 9.88 0 0 0 .001-13.971zm6.697 100.367l-74.807 74.806c-3.858 3.858-3.858 10.113 0 13.972a9.85 9.85 0 0 0 13.971 0l74.807-74.806c3.858-3.858 3.858-10.113 0-13.972a9.88 9.88 0 0 0-13.971 0zM421.22 5.466c-3.86-3.858-10.112-3.858-13.972 0L337.25 75.464 308.167 46.38c-3.858-3.857-10.1-3.858-13.972 0a45.81 45.81 0 0 1-32.608 13.506c-12.317 0-23.897-4.796-32.607-13.506a9.88 9.88 0 0 0-13.971 0L5.48 255.908a9.88 9.88 0 0 0 0 13.971l151.327 151.327c1.93 1.93 4.457 2.894 6.986 2.894s5.056-.964 6.986-2.894l209.53-209.53a9.88 9.88 0 0 0 0-13.971 45.81 45.81 0 0 1-13.507-32.607 45.81 45.81 0 0 1 13.507-32.608 9.88 9.88 0 0 0 0-13.971l-29.084-29.084L421.22 19.44c3.857-3.86 3.857-10.115-.001-13.973zM359.867 126.02c-8.326 11.253-12.824 24.82-12.824 39.077s4.5 27.822 12.824 39.076L163.792 400.25 26.437 262.894 222.512 66.817c11.253 8.326 24.818 12.825 39.076 12.825s27.823-4.5 39.077-12.825l22.616 22.616-19.15 19.15c-12.62-6.65-28.638-4.673-39.245 5.932a33.21 33.21 0 0 0-9.792 23.642c0 8.932 3.478 17.327 9.792 23.642 13.035 13.034 34.246 13.036 47.283 0a33.21 33.21 0 0 0 9.792-23.642 33.28 33.28 0 0 0-3.85-15.612l19.14-19.14zm-72.965 13.762a9.88 9.88 0 0 0 13.972 0l1.327-1.327c-.075 3.542-1.5 6.86-4.003 9.373-5.33 5.333-14 5.33-19.34 0-2.583-2.583-4.006-6.018-4.006-9.67a13.58 13.58 0 0 1 13.376-13.672l-1.326 1.326c-3.858 3.86-3.858 10.114 0 13.972zm-56.56 42.6L115.686 297.028a9.88 9.88 0 0 0 0 13.971c1.93 1.93 4.457 2.894 6.985 2.894a9.85 9.85 0 0 0 6.986-2.894l114.656-114.654c3.858-3.858 3.858-10.113 0-13.972a9.88 9.88 0 0 0-13.97 0z" stroke-width="2.5" fill="#307082" stroke="#285f70"/></svg>