<svg xmlns="http://www.w3.org/2000/svg" width="512" height="512"><g fill="#b3b3b3"><path d="M474.213-.967H37.786C16.95-.967 0 20.175 0 46.16v416.614C0 488.76 16.95 509.9 37.786 509.9h436.427c20.836 0 37.787-21.14 37.786-47.126V46.16c0-25.985-16.95-47.125-37.786-47.125zm7.37 463.742c0 5.068-3.305 9.2-7.37 9.2H37.786c-4.064 0-7.37-4.123-7.37-9.2V46.16c0-5.07 3.305-9.2 7.37-9.2H474.213c4.064 0 7.37 4.123 7.37 9.2zM46.64 57.2v369.944h418.72V57.2zm388.304 330.02H77.057V97.12h357.887z"/><circle cx="256.001" cy="449.046" r="15.039"/><path d="M254.59 106.85L138.206 271.103h61.05v97.045h110.668v-97.045h61.05zm24.915 124.332v97.045h-49.832V231.18H208.03l46.56-65.71 46.56 65.71z"/></g></svg>