<svg xmlns="http://www.w3.org/2000/svg" height="683" viewBox="0 0 512 512" width="683"><path d="M360.494 2.685H151.506L2.685 151.506v208.988l148.82 148.82h208.988l148.82-148.82V151.506zm0 0" fill="#ff6c6c"/><path d="M509.315 151.506v208.988l-148.82 148.82H256V2.685h104.494zm0 0" fill="#ff4949"/><path d="M335.853 63.045H176.147L63.045 176.147v159.706l113.102 113.102h159.706l113.102-113.102V176.147zm83.417 260.64l-95.585 95.585h-135.37L92.73 323.685v-135.37l95.585-95.584h135.37l95.585 95.584zm0 0" fill="#deecf1"/><path d="M448.955 176.147v159.706L335.853 448.955H256V419.27h67.685l95.585-95.585v-135.37L323.685 92.73H256V63.045h79.853zm0 0" fill="#c6e2e7"/><path d="M341.222 159.04c-2.883 0-5.665.44-8.288 1.245v-9.53c0-15.6-12.688-28.29-28.284-28.29-4.187 0-8.152.938-11.733 2.576-4.8-8.81-14.147-14.8-24.867-14.8-14.725 0-26.845 11.31-28.158 25.702-2.658-.83-5.484-1.28-8.41-1.28-15.6 0-28.292 12.697-28.292 28.303v76.14l-6.518-8.918C186.4 214.67 166 209.56 151 218.865c-7.013 4.445-11.89 11.45-13.728 19.725-1.916 8.624-.283 17.975 4.482 25.78 2.24 4.83 16.842 35.68 38.48 67 32.266 46.706 63.44 70.39 92.658 70.39 79.33 0 96.703-68.897 96.703-95.443V187.33c-.001-15.6-12.724-28.3-28.363-28.3zm8.358 147.275c0 .753-.878 75.44-76.7 75.44-45.576 0-97.18-91.167-113.217-126.295-.195-.425-.42-.84-.67-1.235-2.223-3.476-3.026-7.593-2.203-11.297.48-2.154 1.72-5.146 4.825-7.116 5.833-3.618 14.11-1.133 18.453 5.533a10.23 10.23 0 0 0 .307.445l24.742 33.85c2.554 3.494 7.063 4.948 11.178 3.606s6.897-5.18 6.897-9.508v-106.77c0-4.577 3.718-8.3 8.288-8.3a8.3 8.3 0 0 1 8.28 8.299v76.264c0 5.525 4.478 10.002 10.002 10.002s10.002-4.477 10.002-10.002v-100.7c0-4.57 3.717-8.286 8.285-8.286 4.574 0 8.295 3.717 8.295 8.286v100.7c0 5.525 4.478 10.002 10.002 10.002s10.002-4.477 10.002-10.002v-88.476c0-4.57 3.725-8.287 8.3-8.287 4.566 0 8.28 3.717 8.28 8.287V251.44c0 5.525 4.478 10.002 10.002 10.002s10.002-4.477 10.002-10.002v-64.1a8.3 8.3 0 0 1 8.288-8.287c4.61 0 8.36 3.717 8.36 8.287z" fill="#fff"/></svg>