<svg xmlns="http://www.w3.org/2000/svg" viewBox="0 0 512 512"><path d="M499.22 438.33l-97.376-97.376c-4.395-4.395-10.353-6.837-16.604-6.837h-15.92c26.957-34.477 42.974-77.842 42.974-125.016 0-112.22-90.93-203.15-203.15-203.15S5.994 96.882 5.994 209.103s90.93 203.15 203.15 203.15c47.174 0 90.54-16.018 125.016-42.974v15.92c0 6.25 2.442 12.21 6.837 16.604l97.376 97.376c9.18 9.18 24.027 9.18 33.1 0l27.64-27.64c9.18-9.18 9.18-24.026.098-33.207zM209.145 334.12c-69.052 0-125.016-55.867-125.016-125.016 0-69.052 55.867-125.016 125.016-125.016 69.052 0 125.016 55.866 125.016 125.016 0 69.052-55.866 125.016-125.016 125.016z" fill="#b3b3b3" stroke="gray" stroke-width="3"/></svg>