<svg xmlns="http://www.w3.org/2000/svg" viewBox="0 0 512 512"><path d="M394.9 267.4c-37.4 0-68.7-30.2-68.7-68.7 0-37.4 30.2-68.7 68.7-68.7 37.4 0 68.7 30.2 68.7 68.7s-31.3 68.7-68.7 68.7zm0-115.4c-26 0-47.9 21.8-47.9 47.9s21.8 47.9 47.9 47.9 47.9-21.8 47.9-47.9-20.9-47.9-47.9-47.9zm63.4 348.5H331.4v-66.6h-40.6v-91.5c0-36.4 22.9-65.5 51-65.5H449c28.1 0 51 29.1 51 65.5v91.5h-40.6v66.6zm-107.1-20.8h86.3v-66.6h40.6v-71.8c0-23.9-13.5-44.7-30.2-44.7H341.8c-16.6 0-30.2 20.8-30.2 44.7v71.8h40.6v66.6zM116.1 267.4c-37.4 0-68.7-30.2-68.7-67.6 0-38.5 31.2-68.7 68.7-68.7s68.7 30.2 68.7 68.7c-1.1 37.5-31.3 67.6-68.7 67.6zm0-115.4c-27 0-47.9 20.8-47.9 47.9s21.8 47.9 47.9 47.9S164 226 164 199.9 142.1 152 116.1 152zm63.4 348.5H52.6v-66.6H12.1v-91.5c0-36.4 22.9-65.5 51-65.5h107.1c28.1 0 51 29.1 51 65.5v91.5h-40.6v66.6zM72.4 479.7h86.3v-66.6h40.6v-71.8c0-23.9-13.5-44.7-30.2-44.7H62c-16.6 0-30.2 20.8-30.2 44.7v71.8h40.6zm124.8-330.8v-26h-7.3c-5.2 0-10.4-4.2-10.4-10.4V21.9c0-5.2 4.2-10.4 10.4-10.4h150.8c5.2 0 10.4 4.2 10.4 10.4v91.5c0 5.2-4.2 10.4-10.4 10.4h-93.6l-33.3 33.3c-5.8 4.9-16.6 2-16.6-8.2zm3.1-45.8h7.3c5.2 0 10.4 4.2 10.4 10.4v11.4l18.7-18.7c2.1-2.1 4.2-3.1 7.3-3.1h87.4V32.3H200.3z" transform="matrix(1.028546 0 0 1.028546 -7.359178 -7.30775)" fill="#307082" stroke="#285f70" stroke-width="2.917"/></svg>