<svg xmlns="http://www.w3.org/2000/svg" width="687" height="687"><g stroke="#4d4d4d" stroke-width="30" stroke-linejoin="round"><g fill="#fff"><rect width="414.373" height="414.373" x="15" y="15.39" rx="30"/><rect width="414.373" height="414.373" x="113" y="140.712" rx="30"/></g><rect rx="30" y="259.627" x="211.576" height="414.373" width="414.373" fill="#65b1c7"/></g><path d="M675.66 309.6c-10.602-10.3-27.785-10.307-38.376 0L393.746 546.466 281.56 437.36c-10.602-10.307-27.785-10.3-38.376 0-10.602 10.307-10.602 27.017-.002 37.32l131.38 127.772c5.09 4.95 11.99 7.73 19.192 7.73s14.1-2.78 19.192-7.73L675.667 346.9c10.59-10.303 10.59-27.014 0-37.32z" fill="#fff"/><path d="M679.996 316.474c-10.666-10.666-27.952-10.662-38.607 0L396.387 561.516 283.526 448.65c-10.666-10.662-27.952-10.666-38.607 0-10.666 10.662-10.666 27.95-.002 38.607l132.17 132.176a27.3 27.3 0 0 0 19.307 7.997c7.24 0 14.186-2.876 19.307-7.997L680.004 355.08c10.655-10.658 10.655-27.945 0-38.607z" fill="#4d4d4d"/></svg>