<svg xmlns="http://www.w3.org/2000/svg" viewBox="0 0 512 512"><g stroke-width="3"><path d="M288 39.056v16.66c0 10.804 7.28 20.16 17.686 23.066C383.204 100.434 440 171.518 440 256c0 101.69-82.295 184-184 184-101.69 0-184-82.295-184-184 0-84.47 56.786-155.564 134.312-177.22C216.72 75.874 224 66.517 224 55.712V39.064c0-15.71-14.834-27.153-30.046-23.234C86.603 43.482 7.394 141.206 8.003 257.332 8.723 394.384 119.48 504.288 256.534 504 393.255 503.71 504 392.788 504 256c0-115.633-79.14-212.78-186.21-240.236C302.678 11.89 288 23.456 288 39.056z" fill="#307082" stroke="#285f70"/><path d="M343.168 251.367L248.9 151.71a21.356 22.576 0 0 0-15.101-6.612h-90.815c-11.795 0-21.356 10.108-21.356 22.576v96.005a21.356 22.576 0 0 0 6.255 15.964l94.27 99.656c8.34 8.817 21.86 8.817 30.202 0l90.815-96.005c8.34-8.817 8.34-23.11 0-31.928zm-171.71-31.015c-11.795 0-21.356-10.108-21.356-22.576s9.56-22.576 21.356-22.576 21.356 10.108 21.356 22.576-9.56 22.576-21.356 22.576zm228.66 62.942L309.302 379.3c-8.34 8.817-21.862 8.817-30.202 0l-.16-.17 77.442-81.867c7.563-7.995 11.728-18.625 11.728-29.932s-4.165-21.937-11.728-29.932l-87.312-92.3h21.677a21.356 22.576 0 0 1 15.101 6.612l94.27 99.656c8.34 8.817 8.34 23.11 0 31.928z" fill="#3f9db1" stroke="#307082"/></g></svg>