<svg xmlns="http://www.w3.org/2000/svg" viewBox="0 0 512 512"><g stroke-width="3"><path d="M288 39.056v16.66c0 10.804 7.28 20.16 17.686 23.066C383.204 100.434 440 171.518 440 256c0 101.69-82.295 184-184 184-101.69 0-184-82.295-184-184 0-84.47 56.786-155.564 134.312-177.22C216.72 75.874 224 66.517 224 55.712V39.064c0-15.71-14.834-27.153-30.046-23.234C86.603 43.482 7.394 141.206 8.003 257.332 8.723 394.384 119.48 504.288 256.534 504 393.255 503.71 504 392.788 504 256c0-115.633-79.14-212.78-186.21-240.236C302.678 11.89 288 23.456 288 39.056z" fill="#307082" stroke="#285f70"/><path d="M250.786 259.557c-2.58-8.26-2.53-24.212-1.032-24.212 4.336 0 3.923 19.05 1.032 24.212zm-.878 24.367c-3.975 10.428-8.93 22.353-14.66 32.368 9.447-3.614 20.133-8.88 32.472-11.306-6.556-4.956-12.854-12.08-17.8-21.063zM201.33 348.35c0 .413 6.814-2.788 18.017-20.753-3.46 3.252-15.023 12.648-18.017 20.753zm83.58-138.405h70.21v169.328a12.36 12.36 0 0 1-12.39 12.39H169.27a12.36 12.36 0 0 1-12.39-12.39v-239.537a12.36 12.36 0 0 1 12.39-12.39h103.25v70.21a12.43 12.43 0 0 0 12.39 12.39zm-4.13 88.69c-10.325-6.298-17.19-14.97-22.044-27.774 2.323-9.55 5.988-24.057 3.2-33.143-2.426-15.178-21.89-13.68-24.676-3.5-2.58 9.447-.207 22.766 4.182 39.75-5.988 14.248-14.816 33.35-21.063 44.294-.052 0-.052.052-.103.052-14 7.176-37.995 22.973-28.135 35.105 2.89 3.562 8.26 5.162 11.1 5.162 9.24 0 18.43-9.292 31.542-31.904 13.32-4.388 27.93-9.86 40.783-11.977 11.202 6.092 24.315 10.067 33.04 10.067 15.074 0 16.107-16.52 10.17-22.405-7.176-7.02-28.032-5.008-37.995-3.717zm70.725-117.084l-50.592-50.592a12.38 12.38 0 0 0-8.776-3.614h-3.097v66.08h66.08v-3.15a12.35 12.35 0 0 0-3.614-8.725zM313.25 313.35c2.117-1.394-1.29-6.143-22.095-4.646 19.153 8.157 22.095 4.646 22.095 4.646z" fill="#3f9db1" stroke="#307082"/></g></svg>