<svg xmlns="http://www.w3.org/2000/svg" viewBox="0 0 512 512"><g stroke-width="3"><path d="M288 39.056v16.66c0 10.804 7.28 20.16 17.686 23.066C383.204 100.434 440 171.518 440 256c0 101.69-82.295 184-184 184-101.69 0-184-82.295-184-184 0-84.47 56.786-155.564 134.312-177.22C216.72 75.874 224 66.517 224 55.712V39.064c0-15.71-14.834-27.153-30.046-23.234C86.603 43.482 7.394 141.206 8.003 257.332 8.723 394.384 119.48 504.288 256.534 504 393.255 503.71 504 392.788 504 256c0-115.633-79.14-212.78-186.21-240.236C302.678 11.89 288 23.456 288 39.056z" fill="#673802" stroke="#593001"/><path d="M370.513 149.132H141.488c-10.524 0-15.834 12.77-8.377 20.225l91.296 91.31v101.72a11.85 11.85 0 0 0 5.053 9.706l39.492 27.634c7.79 5.454 18.64-.074 18.64-9.706V260.667l91.298-91.31c7.44-7.442 2.168-20.225-8.378-20.225z" fill="#894b03" stroke="#673802"/></g></svg>