<svg xmlns="http://www.w3.org/2000/svg" viewBox="0 0 512 512"><g stroke-width="3"><path d="M288 39.056v16.66c0 10.804 7.28 20.16 17.686 23.066C383.204 100.434 440 171.518 440 256c0 101.69-82.295 184-184 184-101.69 0-184-82.295-184-184 0-84.47 56.786-155.564 134.312-177.22C216.72 75.874 224 66.517 224 55.712V39.064c0-15.71-14.834-27.153-30.046-23.234C86.603 43.482 7.394 141.206 8.003 257.332 8.723 394.384 119.48 504.288 256.534 504 393.255 503.71 504 392.788 504 256c0-115.633-79.14-212.78-186.21-240.236C302.678 11.89 288 23.456 288 39.056z" fill="#673802" stroke="#593001"/><path d="M376.61 344.417l-50.69-50.69c-2.288-2.288-5.39-3.56-8.643-3.56h-8.287c14.033-17.948 22.37-40.522 22.37-65.08 0-58.42-47.335-105.754-105.754-105.754S119.85 166.67 119.85 225.088 167.186 330.84 225.605 330.84c24.557 0 47.132-8.338 65.08-22.37v8.287c0 3.254 1.27 6.355 3.56 8.643l50.69 50.69c4.78 4.78 12.507 4.78 17.236 0l14.39-14.39c4.78-4.78 4.78-12.507.05-17.287zm-151.004-54.25c-35.946 0-65.08-29.082-65.08-65.08 0-35.946 29.082-65.08 65.08-65.08 35.946 0 65.08 29.082 65.08 65.08 0 35.946-29.082 65.08-65.08 65.08z" fill="#894b03" stroke="#673802"/></g></svg>