<svg xmlns="http://www.w3.org/2000/svg" viewBox="0 0 512 512"><g stroke-width="3"><path d="M288 39.056v16.66c0 10.804 7.28 20.16 17.686 23.066C383.204 100.434 440 171.518 440 256c0 101.69-82.295 184-184 184-101.69 0-184-82.295-184-184 0-84.47 56.786-155.564 134.312-177.22C216.72 75.874 224 66.517 224 55.712V39.064c0-15.71-14.834-27.153-30.046-23.234C86.603 43.482 7.394 141.206 8.003 257.332 8.723 394.384 119.48 504.288 256.534 504 393.255 503.71 504 392.788 504 256c0-115.633-79.14-212.78-186.21-240.236C302.678 11.89 288 23.456 288 39.056z" fill="#673802" stroke="#593001"/><path d="M338.66 270.538l12.355-32.36c2.068-5.428-1.913-11.218-7.754-11.218H313.02c5.686-9.77 9.202-20.988 9.202-33.085v-.155c20.264-4.032 33.085-9.874 33.085-16.387 0-6.875-14.113-12.975-36.238-17.06-4.756-16.956-13.958-34.015-20.988-42.803-4.91-6.152-13.39-8.064-20.42-4.55l-14.268 7.134c-4.653 2.326-10.132 2.326-14.785 0l-14.268-7.134c-7.03-3.515-15.508-1.603-20.42 4.55-6.98 8.788-16.232 25.847-20.988 42.803-22.074 4.084-36.186 10.184-36.186 17.06 0 6.514 12.82 12.355 33.085 16.387v.155c0 12.097 3.515 23.314 9.202 33.085h-29.725c-5.945 0-9.925 6.048-7.6 11.528l13.337 31.12c-20.73 12.045-34.842 34.222-34.842 59.914v23.16c0 12.77 10.39 23.16 23.16 23.16h185.275c12.77 0 23.16-10.39 23.16-23.16v-23.16c0-25.02-13.337-46.732-33.136-58.984zm-107.474 88.76l-21.505-99.254 25.64 16.542 12.407 20.678zm49.627 0l-16.542-62.034 12.407-20.678 25.64-16.542zm21.557-154.31c-2.016 6.152-3.62 12.717-8.53 17.266-5.22 4.808-24.814 11.58-33.085-12.924-1.447-4.342-7.96-4.342-9.46 0-8.788 25.95-28.95 16.75-33.085 12.924-4.91-4.55-6.565-11.114-8.53-17.266-.414-1.292-3.257-2.947-3.257-2.998v-5.583c14.63 1.86 31.534 2.998 49.627 2.998s34.997-1.086 49.627-2.998V202c-.052.052-2.895 1.654-3.308 2.998z" fill="#894b03" stroke="#673802"/></g></svg>