<svg xmlns="http://www.w3.org/2000/svg" viewBox="0 0 512 512"><g stroke-width="3"><path d="M288 39.056v16.66c0 10.804 7.28 20.16 17.686 23.066C383.204 100.434 440 171.518 440 256c0 101.69-82.295 184-184 184-101.69 0-184-82.295-184-184 0-84.47 56.786-155.564 134.312-177.22C216.72 75.874 224 66.517 224 55.712V39.064c0-15.71-14.834-27.153-30.046-23.234C86.603 43.482 7.394 141.206 8.003 257.332 8.723 394.384 119.48 504.288 256.534 504 393.255 503.71 504 392.788 504 256c0-115.633-79.14-212.78-186.21-240.236C302.678 11.89 288 23.456 288 39.056z" fill="#673802" stroke="#593001"/><path d="M250.57 177.318l-38.83 16.295v-66.625L180.13 236.95l31.608-13.984v75.293zm-48.077-55.878l-.75 2.716-8.783 30.568c-23.287 8.957-39.813 31.55-39.813 57.958 0 30.22 19.82 55.415 48.192 60.963v30.972c-45.014-6.067-78.24-45.187-78.24-91.877 0-46.516 34.555-85.06 79.396-91.3zm179.94 258.412c-6.472 6.472-13.348 7.107-16.526 6.067-3.12-1.04-15.66-11.5-34.902-25.656-19.242-14.215-19.416-20.63-24.847-32.764-5.432-12.077-17.566-24.616-33.226-30.28l-5.605-8.494c-14.273 9.766-30.626 15.544-46.98 16.584l1.213-3.814 9.188-28.603c26.87-6.876 46.748-31.204 46.748-60.21 0-31.493-22.19-58.998-55.473-61.887V120.69c48.077 2.947 85.983 43.05 85.983 92.05 0 19.416-6.472 37.387-16.757 52.237l8.437 5.547c5.663 15.66 18.202 27.737 30.28 33.168s18.607 5.605 32.822 24.847c14.215 19.184 24.674 31.724 25.714 34.844s.404 9.997-6.067 16.47zm-5.72-10.343a4.64 4.64 0 0 0-4.623-4.623 4.64 4.64 0 0 0-4.623 4.623 4.64 4.64 0 0 0 4.623 4.623 4.64 4.64 0 0 0 4.623-4.623z" fill="#894b03" stroke="#673802"/></g></svg>