<svg xmlns="http://www.w3.org/2000/svg" viewBox="0 0 512 512"><g stroke-width="3"><path d="M288 39.056v16.66c0 10.804 7.28 20.16 17.686 23.066C383.204 100.434 440 171.518 440 256c0 101.69-82.295 184-184 184-101.69 0-184-82.295-184-184 0-84.47 56.786-155.564 134.312-177.22C216.72 75.874 224 66.517 224 55.712V39.064c0-15.71-14.834-27.153-30.046-23.234C86.603 43.482 7.394 141.206 8.003 257.332 8.723 394.384 119.48 504.288 256.534 504 393.255 503.71 504 392.788 504 256c0-115.633-79.14-212.78-186.21-240.236C302.678 11.89 288 23.456 288 39.056z" fill="#307082" stroke="#285f70"/><path d="M399.174 273.416H266.355l88.454 88.454c3.38 3.38 8.944 3.655 12.42.38 21.662-20.408 36.562-47.918 40.933-78.843.75-5.295-3.644-9.99-8.99-9.99zm-8.86-36.27c-4.612-66.865-58.044-120.297-124.91-124.91-5.105-.353-9.403 3.952-9.403 9.068V246.55h125.25c5.116 0 9.415-4.3 9.062-9.403zm-161.18 36.27V140.598c0-5.345-4.696-9.74-9.986-8.99-66.703 9.426-117.69 67.7-115.315 137.537 2.44 71.724 64.195 130.54 135.953 129.64 28.2-.353 54.277-9.443 75.71-24.645 4.422-3.134 4.713-9.644.88-13.478z" fill="#3f9db1" stroke="#307082"/></g></svg>