<svg xmlns="http://www.w3.org/2000/svg" xmlns:xlink="http://www.w3.org/1999/xlink" width="512" height="512"><g stroke-width="3"><g fill="#894b03" stroke="#673802"><use xlink:href="#A"/><path d="M277.174 245.063h84.52a14.63 14.63 0 0 0 14.612-14.612v-84.52a14.63 14.63 0 0 0-14.612-14.612h-84.52a14.63 14.63 0 0 0-14.612 14.612v84.52a14.63 14.63 0 0 0 14.612 14.612z"/><use xlink:href="#A" y="131.242"/><path d="M371.93 310.685h-43.748v-43.748c0-4.83-3.92-8.75-8.75-8.75s-8.75 3.92-8.75 8.75v43.748h-43.748c-4.83 0-8.75 3.92-8.75 8.75s3.92 8.75 8.75 8.75h43.748v43.748c0 4.83 3.92 8.75 8.75 8.75s8.75-3.92 8.75-8.75v-43.748h43.748c4.83 0 8.75-3.92 8.75-8.75s-3.92-8.75-8.75-8.75z"/></g><path d="M288.472 32.304v16.904c0 10.963 7.388 20.456 17.947 23.406 78.66 21.972 136.292 94.103 136.292 179.83 0 103.187-83.507 186.7-186.7 186.7-103.187 0-186.7-83.507-186.7-186.7 0-85.714 57.622-157.855 136.3-179.83 10.56-2.95 17.95-12.445 17.95-23.41V32.312c0-15.94-15.052-27.553-30.49-23.576C84.108 36.795 3.732 135.96 4.35 253.795c.73 139.07 113.12 250.594 252.192 250.3 138.735-.292 251.11-112.85 251.11-251.652 0-117.336-80.306-215.913-188.954-243.775-15.334-3.932-30.228 7.805-30.228 23.635z" fill="#673802" stroke="#593001"/></g><defs><path id="A" d="M230.45 131.32h-84.52a14.63 14.63 0 0 0-14.612 14.612v84.52a14.63 14.63 0 0 0 14.612 14.612h84.52a14.63 14.63 0 0 0 14.612-14.612v-84.52a14.63 14.63 0 0 0-14.612-14.612z"/></defs></svg>