<svg xmlns="http://www.w3.org/2000/svg" viewBox="0 0 512 512"><g stroke-width="3"><path d="M288 39.056v16.66c0 10.804 7.28 20.16 17.686 23.066C383.204 100.434 440 171.518 440 256c0 101.69-82.295 184-184 184-101.69 0-184-82.295-184-184 0-84.47 56.786-155.564 134.312-177.22C216.72 75.874 224 66.517 224 55.712V39.064c0-15.71-14.834-27.153-30.046-23.234C86.603 43.482 7.394 141.206 8.003 257.332 8.723 394.384 119.48 504.288 256.534 504 393.255 503.71 504 392.788 504 256c0-115.633-79.14-212.78-186.21-240.236C302.678 11.89 288 23.456 288 39.056z" fill="#673802" stroke="#593001"/><path d="M280.82 214.41v16.542c0 3.412-2.79 6.203-6.203 6.203h-28.948V266.1c0 3.412-2.79 6.203-6.203 6.203h-16.542c-3.412 0-6.203-2.79-6.203-6.203v-28.948h-28.948c-3.412 0-6.203-2.79-6.203-6.203V214.41c0-3.412 2.79-6.203 6.203-6.203h28.948v-28.948c0-3.412 2.79-6.203 6.203-6.203h16.542c3.412 0 6.203 2.79 6.203 6.203v28.948h28.948c3.412 0 6.203 2.79 6.203 6.203zM384.72 361.577l-14.63 14.63c-4.86 4.86-12.716 4.86-17.524 0l-51.59-51.537c-2.326-2.326-3.618-5.48-3.618-8.788v-8.426c-18.247 14.267-41.2 22.745-66.166 22.745-59.395 0-107.52-48.126-107.52-107.52s48.126-107.52 107.52-107.52 107.52 48.126 107.52 107.52c0 24.967-8.478 47.92-22.745 66.166h8.426c3.308 0 6.462 1.292 8.788 3.618l51.537 51.537c4.807 4.86 4.807 12.716 0 17.575zM301.496 222.68c0-38.873-31.43-70.302-70.302-70.302s-70.302 31.43-70.302 70.302 31.43 70.302 70.302 70.302 70.302-31.43 70.302-70.302z" fill="#894b03" stroke="#673802"/></g></svg>