<svg xmlns="http://www.w3.org/2000/svg" viewBox="0 0 512 512"><g stroke-width="3"><path d="M288 39.056v16.66c0 10.804 7.28 20.16 17.686 23.066C383.204 100.434 440 171.518 440 256c0 101.69-82.295 184-184 184-101.69 0-184-82.295-184-184 0-84.47 56.786-155.564 134.312-177.22C216.72 75.874 224 66.517 224 55.712V39.064c0-15.71-14.834-27.153-30.046-23.234C86.603 43.482 7.394 141.206 8.003 257.332 8.723 394.384 119.48 504.288 256.534 504 393.255 503.71 504 392.788 504 256c0-115.633-79.14-212.78-186.21-240.236C302.678 11.89 288 23.456 288 39.056z" fill="#307082" stroke="#285f70"/><path d="M369.898 280.33l25.71 14.594c2.936 1.667 4.3 5.113 3.293 8.297-6.68 21.146-18.08 40.25-32.995 56.117a7.249 7.129 0 0 1-8.948 1.337l-25.692-14.592a115.581 113.661 0 0 1-36.657 20.842v29.18a7.246 7.125 0 0 1-5.657 6.952c-21.09 4.657-43.74 4.898-65.893.005-3.312-.732-5.673-3.617-5.673-6.955v-29.18a115.568 113.647 0 0 1-36.657-20.842l-25.692 14.592a7.249 7.129 0 0 1-8.948-1.337c-14.913-15.867-26.316-34.97-32.995-56.117-1.006-3.184.357-6.63 3.293-8.297l25.71-14.594a116.729 114.79 0 0 1 0-41.648l-25.71-14.594c-2.936-1.667-4.3-5.113-3.294-8.297 6.68-21.146 18.08-40.25 32.995-56.117a7.249 7.129 0 0 1 8.948-1.337l25.692 14.592a115.581 113.661 0 0 1 36.657-20.842v-29.18a7.246 7.125 0 0 1 5.657-6.952c21.09-4.657 43.74-4.898 65.893-.005 3.312.732 5.673 3.617 5.673 6.955v29.18a115.568 113.647 0 0 1 36.657 20.842l25.692-14.592a7.249 7.129 0 0 1 8.948 1.337c14.913 15.867 26.316 34.97 32.995 56.117 1.006 3.184-.357 6.63-3.293 8.297l-25.71 14.594a116.732 114.793 0 0 1 0 41.649zm-65.633-20.824c0-26.17-21.652-47.463-48.265-47.463s-48.265 21.292-48.265 47.463 21.652 47.463 48.265 47.463 48.265-21.292 48.265-47.463z" fill="#3f9db1" stroke="#307082"/></g></svg>