<svg xmlns="http://www.w3.org/2000/svg" viewBox="0 0 512 512"><g stroke-width="3"><path d="M288 39.056v16.66c0 10.804 7.28 20.16 17.686 23.066C383.204 100.434 440 171.518 440 256c0 101.69-82.295 184-184 184-101.69 0-184-82.295-184-184 0-84.47 56.786-155.564 134.312-177.22C216.72 75.874 224 66.517 224 55.712V39.064c0-15.71-14.834-27.153-30.046-23.234C86.603 43.482 7.394 141.206 8.003 257.332 8.723 394.384 119.48 504.288 256.534 504 393.255 503.71 504 392.788 504 256c0-115.633-79.14-212.78-186.21-240.236C302.678 11.89 288 23.456 288 39.056z" fill="#673802" stroke="#593001"/><path d="M320.482 113.943H191.517c-15.257 0-27.635 12.225-27.635 27.293v236.538c0 15.068 12.378 27.293 27.635 27.293h128.965c15.257 0 27.635-12.225 27.635-27.293V141.236c0-15.068-12.378-27.293-27.635-27.293zM256 386.872c-10.19 0-18.424-8.13-18.424-18.195S245.81 350.48 256 350.48s18.424 8.13 18.424 18.195S266.2 386.872 256 386.872zm64.482-61.41c0 3.753-3.11 6.823-6.91 6.823H198.426c-3.8 0-6.91-3.07-6.91-6.823V148.06c0-3.753 3.11-6.823 6.91-6.823h115.147c3.8 0 6.91 3.07 6.91 6.823z" fill="#894b03" stroke="#673802"/></g></svg>