<svg xmlns="http://www.w3.org/2000/svg" viewBox="0 0 512 512"><g stroke-width="3"><path d="M288 39.056v16.66c0 10.804 7.28 20.16 17.686 23.066C383.204 100.434 440 171.518 440 256c0 101.69-82.295 184-184 184-101.69 0-184-82.295-184-184 0-84.47 56.786-155.564 134.312-177.22C216.72 75.874 224 66.517 224 55.712V39.064c0-15.71-14.834-27.153-30.046-23.234C86.603 43.482 7.394 141.206 8.003 257.332 8.723 394.384 119.48 504.288 256.534 504 393.255 503.71 504 392.788 504 256c0-115.633-79.14-212.78-186.21-240.236C302.678 11.89 288 23.456 288 39.056z" fill="#673802" stroke="#593001"/><path d="M385.58 253.246c-20.017 0-28.685 15.23-39.56 15.23-28.915 0-2.596-84.97-2.596-84.97s-94.632 38.57-94.632-1.6c0-17.273 17.495-22.298 17.495-41.454 0-17.116-13.554-26.38-29.63-26.38-16.707 0-31.996 9.108-31.996 27.165 0 19.942 15.288 28.578 15.288 39.412 0 33.566-84.795 13.818-84.795 13.818v160.657s86.122 19.79 86.122-13.818c0-10.834-19.284-19.336-19.284-39.278 0-18.058 14.102-27.165 30.65-27.165 16.234 0 29.79 9.264 29.79 26.38 0 19.157-17.495 24.182-17.495 41.454 0 29.314 62.518 12.405 87.373 12.405 0 0-16.74-57.902 12.45-57.902 17.338 0 22.38 17.43 41.6 17.43 17.18 0 26.48-13.503 26.48-29.677 0-16.488-9.142-31.72-27.267-31.72z" fill="#894b03" stroke="#673802"/></g></svg>