<svg xmlns="http://www.w3.org/2000/svg" viewBox="0 0 512 512"><g stroke-width="3"><path d="M288 39.056v16.66c0 10.804 7.28 20.16 17.686 23.066C383.204 100.434 440 171.518 440 256c0 101.69-82.295 184-184 184-101.69 0-184-82.295-184-184 0-84.47 56.786-155.564 134.312-177.22C216.72 75.874 224 66.517 224 55.712V39.064c0-15.71-14.834-27.153-30.046-23.234C86.603 43.482 7.394 141.206 8.003 257.332 8.723 394.384 119.48 504.288 256.534 504 393.255 503.71 504 392.788 504 256c0-115.633-79.14-212.78-186.21-240.236C302.678 11.89 288 23.456 288 39.056z" fill="#673802" stroke="#593001"/><path d="M364.926 153.84H147.073c-12.027 0-21.785 9.758-21.785 21.785v7.262h261.424v-7.262c0-12.027-9.758-21.785-21.785-21.785zM125.288 335.384c0 12.027 9.758 21.785 21.785 21.785h217.853c12.027 0 21.785-9.758 21.785-21.785V197.41H125.288zm159.76-105.296c0-1.997 1.634-3.63 3.63-3.63h65.356c1.997 0 3.63 1.634 3.63 3.63v7.262c0 1.997-1.634 3.63-3.63 3.63h-65.356c-1.997 0-3.63-1.634-3.63-3.63zm0 29.047c0-1.997 1.634-3.63 3.63-3.63h65.356c1.997 0 3.63 1.634 3.63 3.63v7.262c0 1.997-1.634 3.63-3.63 3.63h-65.356c-1.997 0-3.63-1.634-3.63-3.63zm0 29.047c0-1.997 1.634-3.63 3.63-3.63h65.356c1.997 0 3.63 1.634 3.63 3.63v7.262c0 1.997-1.634 3.63-3.63 3.63h-65.356c-1.997 0-3.63-1.634-3.63-3.63zm-79.88-61.725c16.02 0 29.047 13.026 29.047 29.047s-13.026 29.047-29.047 29.047-29.047-13.026-29.047-29.047 13.026-29.047 29.047-29.047zm-49.425 92.678c3.812-11.664 14.75-20.06 27.64-20.06h3.722c5.582 2.315 11.664 3.63 18.064 3.63s12.527-1.316 18.064-3.63h3.722c12.9 0 23.828 8.396 27.64 20.06 1.452 4.493-2.36 8.986-7.08 8.986h-84.7c-4.72 0-8.533-4.54-7.08-8.986z" fill="#894b03" stroke="#673802"/></g></svg>