<svg xmlns="http://www.w3.org/2000/svg" viewBox="0 0 512 512"><g stroke-width="3"><path d="M288 39.056v16.66c0 10.804 7.28 20.16 17.686 23.066C383.204 100.434 440 171.518 440 256c0 101.69-82.295 184-184 184-101.69 0-184-82.295-184-184 0-84.47 56.786-155.564 134.312-177.22C216.72 75.874 224 66.517 224 55.712V39.064c0-15.71-14.834-27.153-30.046-23.234C86.603 43.482 7.394 141.206 8.003 257.332 8.723 394.384 119.48 504.288 256.534 504 393.255 503.71 504 392.788 504 256c0-115.633-79.14-212.78-186.21-240.236C302.678 11.89 288 23.456 288 39.056z" fill="#673802" stroke="#593001"/><path d="M256 108.93c-80.952 0-146.576 65.624-146.576 146.576S175.048 402.08 256 402.08s146.576-65.624 146.576-146.576S336.952 108.93 256 108.93zm0 264.783c-65.328 0-118.207-52.87-118.207-118.207 0-65.327 52.87-118.207 118.207-118.207 65.328 0 118.207 52.87 118.207 118.207 0 65.328-52.87 118.207-118.207 118.207zm63.448-59.732c-5.682 5.74-26.9 24.466-61.506 24.466-48.72 0-83.03-36.304-83.03-83.67 0-46.78 35.625-82.39 82.604-82.39 32.82 0 52.447 15.733 57.68 20.556a7.072 7.072 0 0 1 1.144 9.056l-10.73 16.616c-2.27 3.517-7.072 4.304-10.342 1.726-5.08-4.005-18.803-13.32-36.47-13.32-28.55 0-46.05 20.88-46.05 47.33 0 24.58 15.892 49.465 46.264 49.465 19.3 0 33.596-11.253 38.846-16.09 3.115-2.87 8.036-2.387 10.532 1.027l11.74 16.058a7.061 7.061 0 0 1-.681 9.172z" fill="#894b03" stroke="#673802"/></g></svg>