<svg xmlns="http://www.w3.org/2000/svg" viewBox="0 0 512 512"><g stroke-width="3"><path d="M288 39.056v16.66c0 10.804 7.28 20.16 17.686 23.066C383.204 100.434 440 171.518 440 256c0 101.69-82.295 184-184 184-101.69 0-184-82.295-184-184 0-84.47 56.786-155.564 134.312-177.22C216.72 75.874 224 66.517 224 55.712V39.064c0-15.71-14.834-27.153-30.046-23.234C86.603 43.482 7.394 141.206 8.003 257.332 8.723 394.384 119.48 504.288 256.534 504 393.255 503.71 504 392.788 504 256c0-115.633-79.14-212.78-186.21-240.236C302.678 11.89 288 23.456 288 39.056z" fill="#307082" stroke="#285f70"/><path d="M256.262 119.468c-44.424 0-73.198 18.2-95.788 50.66-4.098 5.888-2.835 13.962 2.882 18.296l24.01 18.205a13.36 13.36 0 0 0 18.507-2.309c13.94-17.465 24.283-27.52 46.06-27.52 17.122 0 38.3 11.02 38.3 27.623 0 12.552-10.36 18.998-27.268 28.476-19.715 11.053-45.804 24.81-45.804 59.22v5.448a13.36 13.36 0 0 0 13.357 13.357h40.334a13.36 13.36 0 0 0 13.357-13.357v-3.213c0-23.854 69.72-24.848 69.72-89.4.001-48.612-50.425-85.488-97.666-85.488zm-5.577 207.852c-21.258 0-38.553 17.295-38.553 38.553s17.295 38.553 38.553 38.553 38.553-17.295 38.553-38.553-17.295-38.553-38.553-38.553z" fill="#3f9db1" stroke="#307082"/></g></svg>