<svg xmlns="http://www.w3.org/2000/svg" viewBox="0 0 512 512"><g stroke-width="3"><path d="M288 39.056v16.66c0 10.804 7.28 20.16 17.686 23.066C383.204 100.434 440 171.518 440 256c0 101.69-82.295 184-184 184-101.69 0-184-82.295-184-184 0-84.47 56.786-155.564 134.312-177.22C216.72 75.874 224 66.517 224 55.712V39.064c0-15.71-14.834-27.153-30.046-23.234C86.603 43.482 7.394 141.206 8.003 257.332 8.723 394.384 119.48 504.288 256.534 504 393.255 503.71 504 392.788 504 256c0-115.633-79.14-212.78-186.21-240.236C302.678 11.89 288 23.456 288 39.056z" fill="#673802" stroke="#593001"/><path d="M394.074 208.558l-127.39-39.138c-6.942-2.133-14.43-2.133-21.37 0l-127.394 39.138c-10.75 3.302-10.75 17.52 0 20.82l22.21 6.823c-4.873 6.024-7.87 13.372-8.166 21.42-4.398 2.52-7.494 7.07-7.494 12.5 0 4.923 2.594 9.065 6.33 11.714l-11.66 52.465a7.31 7.31 0 0 0 7.129 8.892h25.625a7.31 7.31 0 0 0 7.133-8.892l-11.66-52.465c3.736-2.65 6.33-6.79 6.33-11.714 0-5.284-2.955-9.705-7.152-12.27.347-6.86 3.854-12.924 9.45-16.77l89.315 27.442c4.138 1.27 12.075 2.854 21.37 0l127.394-39.138c10.755-3.306 10.755-17.52 0-20.825zm-123.1 73.934c-13.03 4-24.132 1.8-29.954 0l-66.23-20.346-6.476 51.816c0 16.144 39.257 29.228 87.684 29.228s87.684-13.084 87.684-29.228l-6.476-51.82z" fill="#894b03" stroke="#673802"/></g></svg>