<svg xmlns="http://www.w3.org/2000/svg" viewBox="0 0 512 512"><g stroke-width="3"><path d="M288 39.056v16.66c0 10.804 7.28 20.16 17.686 23.066C383.204 100.434 440 171.518 440 256c0 101.69-82.295 184-184 184-101.69 0-184-82.295-184-184 0-84.47 56.786-155.564 134.312-177.22C216.72 75.874 224 66.517 224 55.712V39.064c0-15.71-14.834-27.153-30.046-23.234C86.603 43.482 7.394 141.206 8.003 257.332 8.723 394.384 119.48 504.288 256.534 504 393.255 503.71 504 392.788 504 256c0-115.633-79.14-212.78-186.21-240.236C302.678 11.89 288 23.456 288 39.056z" fill="#673802" stroke="#593001"/><path d="M144.27 239.544h95.768v-95.768H144.27zm31.923-63.845h31.923v31.923h-31.923zm95.768-31.923v95.768h95.768v-95.768zm63.845 63.845h-31.923V175.7h31.923zM144.27 367.234h95.768v-95.768H144.27zm31.923-63.845h31.923v31.923h-31.923zm175.574-31.923h15.96v63.845h-47.884v-15.96h-15.96v47.884H271.96v-95.768h47.884v15.96h31.923zm0 79.806h15.96v15.96h-15.96zm-31.923 0h15.96v15.96h-15.96z" fill="#894b03" stroke="#673802"/></g></svg>