<svg xmlns="http://www.w3.org/2000/svg" viewBox="0 0 512 512"><g stroke-width="3"><path d="M288 39.056v16.66c0 10.804 7.28 20.16 17.686 23.066C383.204 100.434 440 171.518 440 256c0 101.69-82.295 184-184 184-101.69 0-184-82.295-184-184 0-84.47 56.786-155.564 134.312-177.22C216.72 75.874 224 66.517 224 55.712V39.064c0-15.71-14.834-27.153-30.046-23.234C86.603 43.482 7.394 141.206 8.003 257.332 8.723 394.384 119.48 504.288 256.534 504 393.255 503.71 504 392.788 504 256c0-115.633-79.14-212.78-186.21-240.236C302.678 11.89 288 23.456 288 39.056z" fill="#673802" stroke="#593001"/><path d="M410.347 277.59l-36.212 69.092a31.999 35.614 0 0 1-27.64 17.67H146.512c-9.262 0-15.032-11.182-10.366-20.086l36.212-69.092A32 35.616 0 0 1 200 257.505h199.982c9.262 0 15.032 11.182 10.365 20.086zM200 239.697h164v-26.712c0-14.753-10.745-26.712-24-26.712h-80l-32-35.616h-80c-13.255 0-24 11.96-24 26.712V332.1l34.538-65.9c8.57-16.35 24.456-26.505 41.46-26.505z" fill="#894b03" stroke="#673802"/></g></svg>