<svg xmlns="http://www.w3.org/2000/svg" viewBox="0 0 512 512"><g stroke-width="3"><path d="M288 39.056v16.66c0 10.804 7.28 20.16 17.686 23.066C383.204 100.434 440 171.518 440 256c0 101.69-82.295 184-184 184-101.69 0-184-82.295-184-184 0-84.47 56.786-155.564 134.312-177.22C216.72 75.874 224 66.517 224 55.712V39.064c0-15.71-14.834-27.153-30.046-23.234C86.603 43.482 7.394 141.206 8.003 257.332 8.723 394.384 119.48 504.288 256.534 504 393.255 503.71 504 392.788 504 256c0-115.633-79.14-212.78-186.21-240.236C302.678 11.89 288 23.456 288 39.056z" fill="#673802" stroke="#593001"/><path d="M272.994 191.776V119.55H166.78c-7.063 0-12.746 5.682-12.746 12.746v246.418c0 7.063 5.682 12.746 12.746 12.746h178.44c7.063 0 12.746-5.682 12.746-12.746V204.522H285.74c-7 0-12.746-5.736-12.746-12.746zm84.972-7.488v3.24h-67.977V119.55h3.24c3.4 0 6.638 1.328 9.028 3.718l51.992 52.045c2.4 2.4 3.718 5.63 3.718 8.975z" fill="#894b03" stroke="#673802"/></g></svg>