<svg xmlns="http://www.w3.org/2000/svg" viewBox="0 0 512 512"><g stroke-width="3"><path d="M288 39.056v16.66c0 10.804 7.28 20.16 17.686 23.066C383.204 100.434 440 171.518 440 256c0 101.69-82.295 184-184 184-101.69 0-184-82.295-184-184 0-84.47 56.786-155.564 134.312-177.22C216.72 75.874 224 66.517 224 55.712V39.064c0-15.71-14.834-27.153-30.046-23.234C86.603 43.482 7.394 141.206 8.003 257.332 8.723 394.384 119.48 504.288 256.534 504 393.255 503.71 504 392.788 504 256c0-115.633-79.14-212.78-186.21-240.236C302.678 11.89 288 23.456 288 39.056z" fill="#673802" stroke="#593001"/><path d="M365.308 312.112V142.15a12.11 12.11 0 0 0-12.14-12.14h-165.915c-26.81 0-48.56 21.75-48.56 48.56V340.44c0 26.81 21.75 48.56 48.56 48.56h165.915a12.11 12.11 0 0 0 12.14-12.14v-8.093c0-3.794-1.77-7.233-4.502-9.46-2.125-7.8-2.125-29.996 0-37.786 2.732-2.175 4.502-5.615 4.502-9.41zM203.44 197.793c0-1.67 1.366-3.035 3.035-3.035h107.238c1.67 0 3.035 1.366 3.035 3.035v10.117c0 1.67-1.366 3.035-3.035 3.035H206.474c-1.67 0-3.035-1.366-3.035-3.035zm0 32.374c0-1.67 1.366-3.035 3.035-3.035h107.238c1.67 0 3.035 1.366 3.035 3.035v10.117c0 1.67-1.366 3.035-3.035 3.035H206.474c-1.67 0-3.035-1.366-3.035-3.035zm128.18 126.46H187.252a16.17 16.17 0 0 1-16.187-16.187c0-8.903 7.284-16.187 16.187-16.187H331.62c-.96 8.65-.96 23.724 0 32.374z" fill="#894b03" stroke="#673802"/></g></svg>