<svg xmlns="http://www.w3.org/2000/svg" viewBox="0 0 512 512"><g stroke-width="3"><path d="M288 39.056v16.66c0 10.804 7.28 20.16 17.686 23.066C383.204 100.434 440 171.518 440 256c0 101.69-82.295 184-184 184-101.69 0-184-82.295-184-184 0-84.47 56.786-155.564 134.312-177.22C216.72 75.874 224 66.517 224 55.712V39.064c0-15.71-14.834-27.153-30.046-23.234C86.603 43.482 7.394 141.206 8.003 257.332 8.723 394.384 119.48 504.288 256.534 504 393.255 503.71 504 392.788 504 256c0-115.633-79.14-212.78-186.21-240.236C302.678 11.89 288 23.456 288 39.056z" fill="#673802" stroke="#593001"/><path d="M403.863 240.113h-18.4c-8.43-56.767-53.304-101.64-110.07-110.07v-18.4c0-4.016-3.256-7.272-7.272-7.272h-24.24c-4.016 0-7.272 3.256-7.272 7.272v18.4c-56.767 8.43-101.64 53.304-110.07 110.07h-18.4c-4.016 0-7.272 3.256-7.272 7.272v24.24c0 4.016 3.256 7.272 7.272 7.272h18.4c8.43 56.767 53.304 101.64 110.07 110.07v18.4c0 4.016 3.256 7.272 7.272 7.272h24.24c4.016 0 7.272-3.256 7.272-7.272v-18.4c56.767-8.43 101.64-53.304 110.07-110.07h18.4c4.016 0 7.272-3.256 7.272-7.272v-24.24c0-4.016-3.256-7.272-7.272-7.272zM275.392 349.577v-24.624c0-4.016-3.256-7.272-7.272-7.272h-24.24c-4.016 0-7.272 3.256-7.272 7.272v24.624c-35.253-7.516-63.155-35.385-70.68-70.68h24.624c4.016 0 7.272-3.256 7.272-7.272v-24.24c0-4.016-3.256-7.272-7.272-7.272h-24.624c7.516-35.253 35.385-63.155 70.68-70.68v24.624c0 4.016 3.256 7.272 7.272 7.272h24.24c4.016 0 7.272-3.256 7.272-7.272v-24.624c35.253 7.516 63.155 35.385 70.68 70.68h-24.624c-4.016 0-7.272 3.256-7.272 7.272v24.24c0 4.016 3.256 7.272 7.272 7.272h24.624c-7.516 35.253-35.385 63.155-70.68 70.68zm0-90.072c0 10.7-8.682 19.392-19.392 19.392s-19.392-8.682-19.392-19.392S245.3 240.113 256 240.113s19.392 8.682 19.392 19.392z" fill="#894b03" stroke="#673802"/></g></svg>