<svg xmlns="http://www.w3.org/2000/svg" viewBox="0 0 512 512"><g stroke-width="3"><path d="M288 39.056v16.66c0 10.804 7.28 20.16 17.686 23.066C383.204 100.434 440 171.518 440 256c0 101.69-82.295 184-184 184-101.69 0-184-82.295-184-184 0-84.47 56.786-155.564 134.312-177.22C216.72 75.874 224 66.517 224 55.712V39.064c0-15.71-14.834-27.153-30.046-23.234C86.603 43.482 7.394 141.206 8.003 257.332 8.723 394.384 119.48 504.288 256.534 504 393.255 503.71 504 392.788 504 256c0-115.633-79.14-212.78-186.21-240.236C302.678 11.89 288 23.456 288 39.056z" fill="#673802" stroke="#593001"/><path d="M362.608 145.79H149.39c-11.77 0-21.322 9.55-21.322 21.322v142.145c0 11.77 9.55 21.322 21.322 21.322h85.287L227.57 351.9h-31.983c-5.908 0-10.66 4.753-10.66 10.66s4.753 10.66 10.66 10.66H316.41c5.908 0 10.66-4.753 10.66-10.66s-4.753-10.66-10.66-10.66H284.43l-7.107-21.322h85.287c11.77 0 21.322-9.55 21.322-21.322V167.11c0-11.77-9.55-21.322-21.322-21.322zm-7.107 156.36H156.498v-127.93H355.5z" fill="#894b03" stroke="#673802"/></g></svg>