<svg xmlns="http://www.w3.org/2000/svg" viewBox="0 0 512 512"><g stroke-width="3"><path d="M288 39.056v16.66c0 10.804 7.28 20.16 17.686 23.066C383.204 100.434 440 171.518 440 256c0 101.69-82.295 184-184 184-101.69 0-184-82.295-184-184 0-84.47 56.786-155.564 134.312-177.22C216.72 75.874 224 66.517 224 55.712V39.064c0-15.71-14.834-27.153-30.046-23.234C86.603 43.482 7.394 141.206 8.003 257.332 8.723 394.384 119.48 504.288 256.534 504 393.255 503.71 504 392.788 504 256c0-115.633-79.14-212.78-186.21-240.236C302.678 11.89 288 23.456 288 39.056z" fill="#673802" stroke="#593001"/><path d="M237.067 332.232L189.57 379.74c-3.7 3.7-9.73 3.708-13.436 0l-47.495-47.507c-5.98-5.98-1.72-16.22 6.718-16.22h28.492V125.99c0-5.248 4.254-9.5 9.5-9.5h19.002c5.248 0 9.5 4.254 9.5 9.5v190.022h28.494c8.457 0 12.686 10.252 6.718 16.22zm70.71-106.89a7.126 7.126 0 0 1-6.85 5.162h-21.21a7.13 7.13 0 0 1-6.747-9.419l33.905-99.76a7.126 7.126 0 0 1 6.747-4.833h23.495c3.052 0 5.765 1.944 6.747 4.833l33.905 99.76a7.13 7.13 0 0 1-6.747 9.419H349.8a7.126 7.126 0 0 1-6.838-5.12l-4.93-16.804h-25.453zm13.573-46.732h7.938l-3.92-13.62zm7.467 170.618L368.87 292.4a7.126 7.126 0 0 0 1.302-4.105v-12.66a7.13 7.13 0 0 0-7.126-7.126h-74.183a7.13 7.13 0 0 0-7.126 7.126v17.18a7.13 7.13 0 0 0 7.126 7.126h33.532l-1.348 1.86-39.906 56.534a7.126 7.126 0 0 0-1.304 4.109v12.952a7.13 7.13 0 0 0 7.126 7.126h76.813a7.13 7.13 0 0 0 7.126-7.126v-17.18a7.13 7.13 0 0 0-7.126-7.126h-36.3l1.35-1.863z" fill="#894b03" stroke="#673802"/></g></svg>