<svg xmlns="http://www.w3.org/2000/svg" viewBox="0 0 512 512"><g stroke-width="3"><path d="M288 39.056v16.66c0 10.804 7.28 20.16 17.686 23.066C383.204 100.434 440 171.518 440 256c0 101.69-82.295 184-184 184-101.69 0-184-82.295-184-184 0-84.47 56.786-155.564 134.312-177.22C216.72 75.874 224 66.517 224 55.712V39.064c0-15.71-14.834-27.153-30.046-23.234C86.603 43.482 7.394 141.206 8.003 257.332 8.723 394.384 119.48 504.288 256.534 504 393.255 503.71 504 392.788 504 256c0-115.633-79.14-212.78-186.21-240.236C302.678 11.89 288 23.456 288 39.056z" fill="#307082" stroke="#285f70"/><path d="M307.295 203.894c-8.4-51.73-28.21-88.05-51.267-88.05s-42.867 36.32-51.267 88.05zm-106.878 55.61c0 12.86.695 25.2 1.912 37.074H309.67a363.09 363.09 0 0 0 1.912-37.074 363.09 363.09 0 0 0-1.912-37.074h-107.342c-1.217 11.875-1.912 24.214-1.912 37.074zm188.094-55.61c-16.568-39.333-50.108-69.746-91.527-82.027 14.135 19.58 23.867 49.065 28.964 82.027zm-173.496-82.027c-41.36 12.28-74.96 42.693-91.47 82.027h62.563c5.04-32.96 14.772-62.447 28.906-82.027zM394.7 222.43h-66.444c1.217 12.165 1.912 24.62 1.912 37.074s-.695 24.91-1.912 37.074h66.386c3.186-11.875 4.982-24.214 4.982-37.074s-1.796-25.2-4.924-37.074zm-212.83 37.074c0-12.455.695-24.91 1.912-37.074h-66.444c-3.128 11.875-4.982 24.214-4.982 37.074s1.854 25.2 4.982 37.074h66.386c-1.16-12.165-1.854-24.62-1.854-37.074zm22.882 55.61c8.4 51.73 28.21 88.05 51.267 88.05s42.867-36.32 51.267-88.05zm92.28 82.027c41.36-12.28 74.96-42.693 91.527-82.027h-62.563c-5.098 32.96-14.83 62.447-28.964 82.027zm-173.496-82.027c16.568 39.333 50.108 69.746 91.527 82.027-14.135-19.58-23.867-49.065-28.964-82.027z" fill="#3f9db1" stroke="#307082"/></g></svg>