<svg xmlns="http://www.w3.org/2000/svg" width="512" height="512"><path d="M161.484 473.562c26.242 12.605 55.02 20.647 85.444 22.965V421.4c-16.915-1.884-33.232-5.687-48.245-12.28zM430.5 237.826h75.122c-9.562-124.28-113.516-222.55-240.158-222.55-74.506 0-144.555 34.883-189.867 92.694l-69.3-40.062-.145 229.324 198.65-114.536-63.857-36.947c31.367-35.136 76.497-56.3 124.506-56.3 85.716.001 155.694 65.128 165.038 148.368zM131.603 355.078l-64.9 37.452c16.842 24.522 38.085 45.75 62.607 62.628l37.452-64.9a168.19 168.19 0 0 1-35.17-35.17zM284.036 421.4v75.125c30.425-2.318 59.184-10.36 85.408-22.965l-37.164-64.44c-15.068 6.592-31.366 10.396-48.244 12.28zm80.118-31.15l37.453 64.9a243.5 243.5 0 0 0 62.66-62.628L399.36 355.08c-9.925 13.4-21.733 25.246-35.207 35.17zm54.113-67.12l64.4 37.2c12.605-26.225 20.647-54.986 22.965-85.413H430.5c-1.883 16.916-5.722 33.217-12.242 48.212z" stroke-width="3" fill="#307082" fill-opacity=".94" stroke="#285f70"/></svg>