<svg xmlns="http://www.w3.org/2000/svg" xmlns:xlink="http://www.w3.org/1999/xlink" viewBox="0 -26 512 511"><g stroke-width="3"><path d="M176.846 81.104a9.9 9.9 0 0 0 9.894-9.894 9.9 9.9 0 0 0-9.894-9.894 9.9 9.9 0 0 0-9.894 9.894 9.9 9.9 0 0 0 9.894 9.894zm55.408 257.25c-21.822 0-39.577 17.755-39.577 39.577s17.756 39.577 39.577 39.577 39.577-17.756 39.577-39.577-17.756-39.577-39.577-39.577zm0 59.365c-10.9 0-19.8-8.878-19.8-19.8s8.878-19.788 19.8-19.788 19.8 8.878 19.8 19.788-8.878 19.8-19.8 19.8zm0 0" stroke="#673802" fill="#894b03"/><path d="M479.61 1.95H32.39C16.02 1.95 2.707 15.265 2.707 31.633v197.884c0 16.368 13.315 29.683 29.683 29.683h243.565l-18.92 27.02c-5.627 8.04-14.358 12.78-23.317 12.57-40.366-.645-72.244 27.924-79.104 63.466-5.067 26.23 3.034 53.015 21.667 71.648 18.687 18.683 45.498 26.718 71.66 21.667 30.684-5.925 55.5-30.444 61.762-61.012 2.014-9.836 2.246-19.707.688-29.335-1.032-6.373-1.098-15.637 4.43-23.537l16.376-23.383 16.372 23.38c5.53 7.904 5.46 17.168 4.433 23.537-1.558 9.63-1.326 19.502.688 29.34 6.257 30.568 31.078 55.087 61.762 61.012 5.148.993 10.316 1.48 15.44 1.48 20.99 0 41.235-8.17 56.208-23.143 18.637-18.63 26.738-45.417 21.678-71.656-6.868-35.57-38.85-64.19-79.123-63.462-8.92.162-17.67-4.53-23.302-12.573l-18.92-27.016h93.176c16.368 0 29.683-13.318 29.683-29.683V31.633c0-16.368-13.315-29.683-29.683-29.683zm-181 328.387c-7.282 10.408-10.037 23.92-7.757 38.042 1.175 7.254.993 14.73-.537 22.208-4.6 22.463-23.568 41.196-46.128 45.552-20.075 3.873-39.724-2.04-53.916-16.233s-20.102-33.834-16.23-53.904c5.005-25.926 28.836-47.933 59.32-47.43 15.576.294 30.475-7.564 39.882-21.006l114.948-164.16c15.97 16.855 18.235 43 4.615 62.415L298.61 330.338zm129.565-11.757c33.447 0 55.42 22.795 60.173 47.423 3.87 20.07-2.048 39.724-16.24 53.912s-33.834 20.098-53.904 16.225c-22.56-4.356-41.53-23.09-46.128-45.548-1.53-7.482-1.712-14.957-.537-22.215 2.28-14.12-.475-27.63-7.757-38.042l-20.507-29.28 24.156-34.494 21.713 31.004c9.24 13.207 23.785 21.017 39.032 21.017zm61.33-89.063c0 5.457-4.437 9.894-9.894 9.894h-93.17L409 207.182a69.2 69.2 0 0 0 4.483-7.347h26.54c5.465 0 9.894-4.43 9.894-9.894s-4.43-9.894-9.894-9.894H420.4c3.154-17.145-.352-34.858-9.512-49.47h29.146c5.465 0 9.894-4.43 9.894-9.894s-4.43-9.894-9.894-9.894h-47.9c-.035-.027-.07-.054-.104-.077-2.15-1.507-4.812-2.1-7.398-1.643a9.88 9.88 0 0 0-6.389 4.07L289.81 239.412H32.39c-5.457 0-9.894-4.437-9.894-9.894V31.633c0-5.457 4.437-9.894 9.894-9.894h279.02v9.894c0 5.465 4.43 9.894 9.894 9.894s9.894-4.43 9.894-9.894V21.74H479.61c5.457 0 9.894 4.437 9.894 9.894zm0 0" fill="#307082" stroke="#285f70"/></g><g stroke-width="3" stroke="#673802" fill="#894b03"><path d="M321.302 61.316c-5.465 0-9.894 4.43-9.894 9.894V91c0 5.465 4.43 9.894 9.894 9.894s9.894-4.43 9.894-9.894V71.2c0-5.465-4.43-9.894-9.894-9.894zm0 59.364c-5.465 0-9.894 4.43-9.894 9.894v19.788c0 5.465 4.43 9.894 9.894 9.894s9.894-4.43 9.894-9.894v-19.788c0-5.465-4.43-9.894-9.894-9.894zm0 0"/><use xlink:href="#A"/><use xlink:href="#A" y="-59.366"/><path d="M440.034 61.316h-59.366c-5.465 0-9.894 4.43-9.894 9.894s4.43 9.894 9.894 9.894h59.366c5.465 0 9.894-4.43 9.894-9.894s-4.43-9.894-9.894-9.894zm-178.097 0h-45.514c-5.465 0-9.894 4.43-9.894 9.894s4.43 9.894 9.894 9.894h45.514c5.465 0 9.894-4.43 9.894-9.894s-4.43-9.894-9.894-9.894zM159.24 158.162v-92.6a6.6 6.6 0 0 0-6.615-6.615H62.22c-14.608 0-26.46 11.852-26.46 26.46v88.2c0 14.608 11.852 26.46 26.46 26.46h90.405a6.6 6.6 0 0 0 6.615-6.615v-4.4a6.67 6.67 0 0 0-2.453-5.154c-1.158-4.245-1.158-16.344 0-20.6a6.57 6.57 0 0 0 2.453-5.127zm-88.2-62.3a1.66 1.66 0 0 1 1.654-1.654h58.433a1.66 1.66 0 0 1 1.654 1.654v5.512a1.66 1.66 0 0 1-1.654 1.654H72.693a1.66 1.66 0 0 1-1.654-1.654zm0 17.64a1.66 1.66 0 0 1 1.654-1.654h58.433a1.66 1.66 0 0 1 1.654 1.654v5.512a1.66 1.66 0 0 1-1.654 1.654H72.693a1.66 1.66 0 0 1-1.654-1.654zm69.844 68.906H62.22a8.81 8.81 0 0 1-8.82-8.82 8.85 8.85 0 0 1 8.82-8.82h78.664c-.524 4.713-.524 12.927 0 17.64z"/></g><path d="M417.3 435.538c-5.11-1.128-11.565-3.228-14.347-4.666-9.193-4.754-21.925-18.362-26.553-28.382-4.138-8.96-4.355-10.5-4.524-32.133-.215-27.554-.93-29.817-16.56-52.37-6.335-9.14-11.295-17.138-11.023-17.77 2.017-4.702 22.013-31.902 23.197-31.554.822.242 7.175 8.426 14.12 18.187 17.897 25.16 24.812 29.51 51.715 32.54 25.16 2.833 43.82 15.89 51.74 36.205 4.398 11.28 4.854 30.957.976 42.032-9.58 27.354-40.16 44.222-68.737 37.913zm31.2-22.738c27.943-14.16 28.08-55.51.232-69.62-27.1-13.737-57.714 4.69-57.714 34.752 0 29.884 30.64 48.47 57.482 34.87z" fill="#307082" stroke="#307082" stroke-width="7.655" stroke-linejoin="round"/><path d="M430.14 417.508c21.822 0 39.577-17.756 39.577-39.577s-17.756-39.577-39.577-39.577-39.577 17.755-39.577 39.577 17.756 39.577 39.577 39.577zm0-59.365c10.91 0 19.79 8.878 19.79 19.788s-8.878 19.79-19.79 19.79-19.79-8.878-19.79-19.79 8.878-19.788 19.79-19.788zm0 0" fill="#894b03" stroke="#673802" stroke-width="3"/><defs><path id="A" d="M261.937 180.046h-85.09c-5.465 0-9.894 4.43-9.894 9.894s4.43 9.894 9.894 9.894h85.09c5.465 0 9.894-4.43 9.894-9.894s-4.43-9.894-9.894-9.894zm0 0"/></defs></svg>