<svg xmlns="http://www.w3.org/2000/svg" width="512" height="512"><path d="M503.282 153.1c4.46 5.574 6.13 12.263 5.017 20.066L487.117 294.69c-.743 6.32-3.624 11.52-8.64 15.607s-10.683 6.13-17 6.13H152.668l-6.132 34.56h294.316c7.06 0 13.19 2.508 18.394 7.524s7.802 11.24 7.802 18.673-2.6 13.656-7.802 18.673-11.333 7.525-18.394 7.525H115.32c-7.804 0-14.493-3.16-20.067-9.473-5.203-6.32-7.246-13.566-6.132-21.738l13.935-75.806L81.877 83.438l-60.2-18.952c-7.06-2.23-12.17-6.504-15.33-12.82S2.538 38.66 4.396 31.6c2.23-7.06 6.596-12.17 13.1-15.328s13.1-3.81 19.788-1.95l76.923 24.525c4.83 1.486 8.826 4.273 11.984 8.36s5.1 8.734 5.853 13.936l4.46 42.362 348.942 39.018c7.804 1.112 13.75 4.643 17.837 10.588zM154.9 417.874c11.148 0 20.624 3.902 28.428 11.707s11.706 17.28 11.706 28.427-3.902 20.716-11.706 28.706-17.28 11.984-28.428 11.984-20.624-3.995-28.428-11.984-11.706-17.558-11.706-28.706 3.902-20.625 11.706-28.427 17.28-11.707 28.428-11.707zm238.015 0c11.146 0 20.625 3.902 28.43 11.707s11.706 17.28 11.706 28.427-3.903 20.716-11.706 28.706-17.283 11.984-28.43 11.984-20.626-3.995-28.427-11.984-11.708-17.558-11.708-28.706 3.903-20.625 11.708-28.427 17.28-11.707 28.427-11.707z" stroke-width="3" fill="#307082" stroke="#285f70"/><g stroke-width="2.78"><path d="M384.787 4.087c-67.47 0-122.76 55.29-122.76 122.76S317.316 249.6 384.787 249.6s122.762-55.29 122.762-122.762-55.29-122.76-122.762-122.76zm0 0" fill="#ff6c6c" stroke="#ff5757" stroke-width="3"/><path d="M507.548 126.85c0 67.47-55.29 122.762-122.762 122.762V4.087c67.47 0 122.762 55.29 122.762 122.76zm0 0" fill="#ff4949"/><path d="M298.47 98.077v57.544h172.633V98.077zm0 0" fill="#deecf1"/><path d="M384.787 98.077h86.317v57.544h-86.317zm0 0" fill="#c6e2e7"/></g></svg>