<svg xmlns="http://www.w3.org/2000/svg" width="512" height="512"><g stroke-width="3"><path d="M475.634 128.68c-22.682-38.858-53.45-69.625-92.3-92.307S302.03 2.356 256.008 2.356s-88.46 11.337-127.32 34.017-69.63 53.445-92.3 92.307S2.357 209.986 2.357 256s11.34 88.45 34.017 127.317c22.68 38.86 53.448 69.625 92.3 92.3 38.864 22.678 81.302 34.017 127.32 34.017s88.46-11.34 127.32-34.017 69.625-53.45 92.305-92.3S509.643 302.015 509.643 256s-11.336-88.46-34.008-127.32zM411.56 346.16c-16.072 27.52-37.868 49.325-65.4 65.397s-57.574 24.1-90.165 24.1c-32.583 0-62.638-8.028-90.163-24.1s-49.317-37.876-65.4-65.397-24.1-57.575-24.1-90.16 8.038-62.642 24.1-90.163 37.87-49.32 65.4-65.393 57.575-24.107 90.163-24.107 62.644 8.034 90.165 24.107 49.318 37.872 65.4 65.393 24.105 57.575 24.105 90.163-8.032 62.64-24.105 90.16zM287.712 129.175h-21.14c-3.087 0-5.614.994-7.6 2.973-1.973 1.982-2.967 4.512-2.967 7.595V256h-73.98c-3.085 0-5.614 1-7.597 2.966s-2.97 4.513-2.97 7.6v21.136c0 3.084 1 5.617 2.97 7.597s4.517 2.968 7.597 2.968h105.692c3.08 0 5.614-1 7.6-2.968s2.976-4.513 2.976-7.597v-147.96c0-3.08-.997-5.6-2.976-7.595s-4.5-2.973-7.595-2.973z" stroke="#285f70" fill="#307082"/><path d="M172.03 295.056c-3.494-4.437-3.94-6.982-3.382-19.322 1.022-22.606-.207-22.023 46.446-22.023h38.734v-59.05c0-50.436.422-59.65 2.893-63.178 2.636-3.764 4.423-4.13 20.152-4.13 14.36 0 17.776.57 20.335 3.398 2.76 3.05 3.075 11.487 3.075 82.276 0 68.383-.385 79.427-2.893 83.008-2.886 4.12-3.023 4.13-62.115 4.13h-59.222z" fill="#894b03" stroke="#673802" stroke-linejoin="round"/></g></svg>