<svg xmlns="http://www.w3.org/2000/svg" width="1936" height="1936" viewBox="0 0 512 512"><g stroke="#285f70" fill="#307082"><path d="M115.36 507.74c-1.236 0-2.487-.31-3.616-.932-2.472-1.35-4.013-3.992-4.013-6.835V389.3C40.953 353.955 4.26 292.053 4.26 214.493 4.26 94.635 112.477 4.26 256 4.26s251.74 90.376 251.74 210.234c0 119.843-108.218 210.218-251.74 210.218-4.714 0-9.337-.264-13.975-.513l-.305-.016-122.163 82.267c-1.266.854-2.73 1.29-4.196 1.29zM256 19.793c-134.81 0-236.483 83.71-236.483 194.7 0 51.62 17.2 121.816 99.216 163.09 2.594 1.305 4.24 4.008 4.24 6.96v100.985l112.43-75.712c1.373-.932 3.036-1.476 4.608-1.274l2.838.155c4.363.25 8.712.482 13.136.482 134.81 0 236.483-83.696 236.483-194.685S390.81 19.793 256 19.793z" stroke-width="5.292"/><path d="M163.684 193.13c-7.755 0-7.755 12.047 0 12.047h92.653c7.77 0 7.77-12.047 0-12.047h-92.653zm92.653 28.483h-92.653c-7.755 0-7.755 12.034 0 12.034h92.653c7.77 0 7.77-12.034 0-12.034zm0 26.383h-92.653c-7.755 0-7.755 12.033 0 12.033h92.653c7.77-.001 7.77-12.033 0-12.033zm0 28.48h-92.653c-7.755 0-7.755 12.028 0 12.028h92.653c7.77-.001 7.77-12.028 0-12.028zm-1.77 26.874h-92.67c-7.75 0-7.75 12.033 0 12.033h92.67c7.746-.001 7.746-12.033 0-12.033zM123.514 131.516v224.656h173V162.685l-32.145-31.17zm158.05 209.7H138.478v-194.74h118.2v23.73h24.882v171zM293.62 97.092H152.758v26.003h14.964v-11.05H285.92v23.73h24.888V306.8h-6.574v14.957h21.532v-193.5zm62.882-.142l-32.15-31.17h-140.86v26h14.958V80.74h118.2v23.73h24.888v171h-6.568v14.957h21.532z" stroke-width="2.117"/></g></svg>