<svg xmlns="http://www.w3.org/2000/svg" width="1936" height="1936" viewBox="0 0 512 512"><g stroke="#285f70" fill="#307082"><path d="M115.36 507.74c-1.236 0-2.487-.31-3.616-.932-2.472-1.35-4.013-3.992-4.013-6.835V389.3C40.953 353.955 4.26 292.053 4.26 214.493 4.26 94.635 112.477 4.26 256 4.26s251.74 90.376 251.74 210.234c0 119.843-108.218 210.218-251.74 210.218-4.714 0-9.337-.264-13.975-.513l-.305-.016-122.163 82.267c-1.266.854-2.73 1.29-4.196 1.29zM256 19.793c-134.81 0-236.483 83.71-236.483 194.7 0 51.62 17.2 121.816 99.216 163.09 2.594 1.305 4.24 4.008 4.24 6.96v100.985l112.43-75.712c1.373-.932 3.036-1.476 4.608-1.274l2.838.155c4.363.25 8.712.482 13.136.482 134.81 0 236.483-83.696 236.483-194.685S390.81 19.793 256 19.793z" stroke-width="5.292"/><path d="M342.227 72.348H169.773l-46.064 73.7V336.93H388.3V146.047zm33.7 70.555H260.4V81.168h76.93zM174.66 81.168h76.94v61.736H136.074zM132.53 328.1V151.723h246.94V328.1zm149.928-154.34h-52.916A13.25 13.25 0 0 0 216.313 187a13.25 13.25 0 0 0 13.229 13.229h52.916A13.25 13.25 0 0 0 295.687 187a13.25 13.25 0 0 0-13.229-13.229zm0 17.64h-52.916c-2.43 0-4.4-1.976-4.4-4.4a4.41 4.41 0 0 1 4.4-4.4h52.916c2.43 0 4.4 1.976 4.4 4.4a4.41 4.41 0 0 1-4.4 4.4zm8.82 110.242h-70.555a4.41 4.41 0 0 0 0 8.82h70.555a4.41 4.41 0 1 0 0-8.82zm-57.327-8.82a4.41 4.41 0 0 0 4.41-4.41v-29.032l5.702 5.702a4.4 4.4 0 0 0 6.236 0c1.724-1.724 1.724-4.5 0-6.235l-13.225-13.225a4.53 4.53 0 0 0-1.438-.957 4.42 4.42 0 0 0-3.37 0 4.41 4.41 0 0 0-1.438.957l-13.225 13.225c-1.724 1.724-1.724 4.5 0 6.235a4.4 4.4 0 0 0 6.236 0l5.702-5.702v29.042a4.41 4.41 0 0 0 4.41 4.41zm47.22-47.2a4.53 4.53 0 0 0-1.438-.957 4.42 4.42 0 0 0-3.37 0 4.41 4.41 0 0 0-1.438.957L261.7 258.848c-1.724 1.724-1.724 4.5 0 6.235a4.4 4.4 0 0 0 6.236 0l5.702-5.702v29.042a4.41 4.41 0 1 0 8.82 0V259.38l5.702 5.702a4.4 4.4 0 0 0 6.236 0c1.724-1.724 1.724-4.5 0-6.235z" stroke-width="2.117"/></g></svg>