<svg xmlns="http://www.w3.org/2000/svg" width="1936" height="1936" viewBox="0 0 512 512"><g stroke="#285f70" fill="#307082"><path d="M115.36 507.74c-1.236 0-2.487-.31-3.616-.932-2.472-1.35-4.013-3.992-4.013-6.835V389.3C40.953 353.955 4.26 292.053 4.26 214.493 4.26 94.635 112.477 4.26 256 4.26s251.74 90.376 251.74 210.234c0 119.843-108.218 210.218-251.74 210.218-4.714 0-9.337-.264-13.975-.513l-.305-.016-122.163 82.267c-1.266.854-2.73 1.29-4.196 1.29zM256 19.793c-134.81 0-236.483 83.71-236.483 194.7 0 51.62 17.2 121.816 99.216 163.09 2.594 1.305 4.24 4.008 4.24 6.96v100.985l112.43-75.712c1.373-.932 3.036-1.476 4.608-1.274l2.838.155c4.363.25 8.712.482 13.136.482 134.81 0 236.483-83.696 236.483-194.685S390.81 19.793 256 19.793z" stroke-width="5.292"/><path d="M379.496 292.813c-2.262-21.095-20.3-37.66-41.93-37.66-13.518 0-26.277 6.605-34.165 17.474-1.534-.262-3.1-.4-4.655-.4-12.232 0-23.098 8.1-26.7 19.585-10.054 5.8-16.43 16.647-16.43 28.26 0 18.013 14.683 32.662 32.73 32.662h56.804c.316 0 .622-.02.902-.04.327.02.654.04 1 .04h22.724c17.003 0 30.838-13.8 30.838-30.762-.005-13.354-8.662-25.03-21.1-29.17zm-9.743 49.658l-22.945-.015-.896-.03-57.584.046c-12.232 0-22.186-10.047-22.186-22.4 0-8.552 5.003-16.488 12.743-20.212l2.293-1.1.538-2.44c1.745-8.013 8.905-13.822 17.024-13.822a17.34 17.34 0 0 1 5.378.863l4.097 1.34 2.15-3.652c5.778-9.8 15.944-15.635 27.195-15.635 17.214 0 31.397 14.1 31.623 31.45l.058 4.176 4.213.796c9.6 1.818 16.587 10.283 16.587 20.13.005 11.3-9.1 20.494-20.288 20.494zm-126.54-66.793a373.56 373.56 0 0 1-12.822-.226l-12.2-.647-9.738-.858-1.824-.164a309.67 309.67 0 0 1-10.682-1.33 4.8 4.8 0 0 1-.269-.036c-17.847-2.568-33.163-6.487-45.136-11.14-.063-.02-.127-.046-.2-.072-2.2-.863-4.28-1.757-6.253-2.666-.227-.108-.47-.2-.696-.318a85.35 85.35 0 0 1-4.982-2.553l-1.118-.616c-1.366-.78-2.6-1.577-3.8-2.378l-1.355-.924a42.83 42.83 0 0 1-2.773-2.188c-.47-.406-.944-.806-1.37-1.212-.706-.668-1.33-1.34-1.914-2.013a22.78 22.78 0 0 1-1.155-1.423 18.98 18.98 0 0 1-1.218-1.895c-.285-.508-.538-1.017-.754-1.525a12.43 12.43 0 0 1-.612-1.86c-.2-.832-.417-1.67-.417-2.5V195c.148.134.332.262.485.395 1.15.98 2.32 1.962 3.638 2.907 19.866 14.654 59.583 26.026 117.146 26.026 57.32 0 96.937-11.28 116.882-25.826 1.592-1.13 3.026-2.296 4.376-3.482h.005v44.717c0 2.84 2.357 5.136 5.272 5.136s5.272-2.296 5.272-5.136v-128.4c0-.935-.327-1.762-.77-2.517-6.105-22.035-51.548-43.7-131.038-43.7S118.26 86.775 112.16 108.8c-.448.755-.775 1.582-.775 2.517V301.36a4.7 4.7 0 0 0 .606 2.3c6.005 24.824 56.366 39.447 104.445 42.96a5.35 5.35 0 0 0 .4.015c2.736 0 5.046-2.05 5.25-4.75.216-2.83-1.956-5.296-4.86-5.506-58.597-4.284-92.74-21.665-95.13-35.852-.042-.23-.1-.452-.17-.673v-43.217c.148.134.332.262.485.395 1.15.98 2.32 1.962 3.638 2.907 19.86 14.64 59.577 26 117.14 26 2.916 0 5.272-2.296 5.272-5.136s-2.357-5.136-5.272-5.136zm-118.1-139.724c1.582 1.212 3.3 2.4 5.14 3.575.385.24.817.478 1.218.72 1.55.94 3.2 1.86 4.914 2.763l1.935 1c1.924.955 3.944 1.88 6.068 2.784l1.018.447c2.473 1.022 5.098 1.998 7.83 2.938.754.262 1.545.508 2.32.765a176.57 176.57 0 0 0 6.743 2.06l2.52.714a202.3 202.3 0 0 0 9.611 2.352c.46.103.954.2 1.418.288 2.947.627 6.005 1.207 9.147 1.746l3.232.534a286.2 286.2 0 0 0 9.227 1.32l2.4.318a338.76 338.76 0 0 0 12.153 1.197l3.142.216 10.24.586 3.833.154a410.87 410.87 0 0 0 13.972.257c4.792 0 9.427-.108 13.972-.257l3.833-.154 10.24-.586 3.142-.216a326.8 326.8 0 0 0 12.153-1.197l2.4-.318c3.158-.4 6.232-.842 9.227-1.32l3.232-.534c3.142-.54 6.2-1.12 9.148-1.746l1.418-.288a202.71 202.71 0 0 0 9.61-2.352l2.52-.714a167.7 167.7 0 0 0 6.743-2.06l2.32-.765c2.73-.945 5.362-1.92 7.83-2.938.353-.144.67-.303 1.018-.447 2.125-.904 4.144-1.828 6.068-2.784l1.935-1a84.35 84.35 0 0 0 4.914-2.763l1.218-.72c1.85-1.166 3.56-2.358 5.14-3.575.395-.308.75-.616 1.134-.925.685-.555 1.408-1.104 2.04-1.664v42.154c0 .827-.216 1.66-.417 2.5-.148.622-.353 1.238-.612 1.86-.2.508-.47 1.017-.754 1.525-.353.632-.75 1.263-1.218 1.895-.348.473-.743.95-1.155 1.423-.585.673-1.207 1.346-1.914 2.013-.427.406-.896.806-1.37 1.212-.865.734-1.766 1.464-2.773 2.188-.432.313-.896.616-1.355.925-1.192.8-2.436 1.597-3.8 2.378-.36.2-.743.4-1.118.616-1.57.863-3.2 1.716-4.982 2.553-.227.108-.464.2-.696.318a115.33 115.33 0 0 1-6.253 2.666c-.063.026-.127.046-.2.072-11.973 4.66-27.3 8.578-45.136 11.14-.1.01-.18.02-.27.036a286.11 286.11 0 0 1-10.682 1.33l-1.824.164-9.738.858c-1.518.108-3.1.164-4.655.252l-7.534.395-12.817.2a372.95 372.95 0 0 1-12.822-.226c-2.562-.092-5.035-.252-7.534-.395l-4.655-.252c-3.322-.23-6.548-.534-9.738-.858l-1.824-.164a309.6 309.6 0 0 1-10.682-1.33c-.1-.01-.18-.02-.27-.036-17.847-2.568-33.163-6.487-45.136-11.14a2.84 2.84 0 0 1-.19-.072 113.67 113.67 0 0 1-6.253-2.666c-.227-.108-.47-.2-.696-.318-1.77-.832-3.4-1.685-4.982-2.553l-1.118-.616c-1.366-.78-2.6-1.577-3.8-2.378l-1.355-.924c-1.007-.724-1.9-1.454-2.773-2.188-.47-.406-.944-.806-1.37-1.212-.706-.668-1.33-1.34-1.914-2.013-.4-.473-.807-.95-1.155-1.423a19.08 19.08 0 0 1-1.218-1.895c-.285-.508-.538-1.017-.754-1.525a12.36 12.36 0 0 1-.612-1.86c-.2-.832-.417-1.67-.417-2.5V133.35c.633.56 1.355 1.1 2.04 1.664.385.324.738.632 1.14.94zm118.1-60.593c71.466 0 121.264 20.3 121.264 38.522s-49.797 38.523-121.264 38.523-121.264-20.3-121.264-38.523S171.745 75.36 243.212 75.36z" stroke-width="2.117"/></g></svg>