<svg xmlns="http://www.w3.org/2000/svg" width="1936" height="1936" viewBox="0 0 512 512"><g stroke="#285f70" fill="#307082"><path d="M115.36 507.74c-1.236 0-2.487-.31-3.616-.932-2.472-1.35-4.013-3.992-4.013-6.835V389.3C40.953 353.955 4.26 292.053 4.26 214.493 4.26 94.635 112.477 4.26 256 4.26s251.74 90.376 251.74 210.234c0 119.843-108.218 210.218-251.74 210.218-4.714 0-9.337-.264-13.975-.513l-.305-.016-122.163 82.267c-1.266.854-2.73 1.29-4.196 1.29zM256 19.793c-134.81 0-236.483 83.71-236.483 194.7 0 51.62 17.2 121.816 99.216 163.09 2.594 1.305 4.24 4.008 4.24 6.96v100.985l112.43-75.712c1.373-.932 3.036-1.476 4.608-1.274l2.838.155c4.363.25 8.712.482 13.136.482 134.81 0 236.483-83.696 236.483-194.685S390.81 19.793 256 19.793z" stroke-width="5.292"/><path d="M325.447 66.626H186.553c-11.572 0-21.042 8.96-21.042 19.93V341.74c0 10.967 9.47 19.937 21.042 19.937h138.894c11.572 0 21.042-8.953 21.042-19.93V86.554c0-10.967-9.47-19.93-21.042-19.93zM233.782 81h44.435c1.406 0 2.546 1.08 2.546 2.42 0 1.332-1.14 2.41-2.546 2.41h-44.435c-1.406 0-2.546-1.08-2.546-2.41 0-1.34 1.14-2.42 2.546-2.42zM256 351.712c-5.804 0-10.52-4.46-10.52-9.973s4.71-9.964 10.52-9.964 10.52 4.45 10.52 9.964-4.718 9.973-10.52 9.973zm75.847-26.917H180.153V98.23h151.694zM256 257.894c-20.152 0-39.085-7.427-53.318-20.906-2.047-1.956-2.047-5.117 0-7.073a5.52 5.52 0 0 1 7.477 0c12.24 11.6 28.528 18 45.84 18s33.602-6.4 45.84-18c2.047-1.947 5.385-1.947 7.477 0 2.047 1.947 2.047 5.11 0 7.073-14.233 13.488-33.166 20.906-53.318 20.906zm-11.892-81.577c0 6.693-5.74 12.122-12.81 12.122-7.06 0-12.8-5.43-12.8-12.122 0-6.702 5.74-12.122 12.8-12.122 7.076-.008 12.81 5.42 12.81 12.122zm49.393 0c0 6.693-5.74 12.122-12.8 12.122s-12.8-5.43-12.8-12.122c0-6.702 5.75-12.122 12.8-12.122 7.04 0 12.8 5.42 12.8 12.122z" stroke-width="2.118"/></g></svg>