<svg xmlns="http://www.w3.org/2000/svg" width="1936" height="1936" viewBox="0 0 512 512"><g stroke="#285f70" fill="#307082"><path d="M115.36 507.74c-1.236 0-2.487-.31-3.616-.932-2.472-1.35-4.013-3.992-4.013-6.835V389.3C40.953 353.955 4.26 292.053 4.26 214.493 4.26 94.635 112.477 4.26 256 4.26s251.74 90.376 251.74 210.234c0 119.843-108.218 210.218-251.74 210.218-4.714 0-9.337-.264-13.975-.513l-.305-.016-122.163 82.267c-1.266.854-2.73 1.29-4.196 1.29zM256 19.793c-134.81 0-236.483 83.71-236.483 194.7 0 51.62 17.2 121.816 99.216 163.09 2.594 1.305 4.24 4.008 4.24 6.96v100.985l112.43-75.712c1.373-.932 3.036-1.476 4.608-1.274l2.838.155c4.363.25 8.712.482 13.136.482 134.81 0 236.483-83.696 236.483-194.685S390.81 19.793 256 19.793z" stroke-width="5.292"/><path d="M174.19 343.984c15.147 11.116 30.007 16.713 44.33 16.713 3.568 0 7.1-.347 10.597-1.047 24.975-4.967 38.07-26.157 38.148-26.365l73.776-100.438a9.35 9.35 0 1 0-15.073-11.065L251.732 322.9c-.088.144-9.545 15.078-26.268 18.405-12.177 2.442-25.707-1.75-40.2-12.404-42.51-31.217-20.337-64.23-17.66-67.9L289.677 94.66c.056-.074 5.24-7.214 14.68-8.85 8.642-1.506 18.576 1.816 29.78 10.04 4.365 3.02 16.106 13.368 18.006 24.743.927 5.533-.538 10.83-4.48 16.194L238.596 285.286c-.046.065-4.92 6.635-12.108 7.826-4.54.732-9.22-.746-14.387-4.536-15.347-11.278-7.38-24.938-5.815-27.292l60.784-82.76c3.054-4.156 2.164-10.013-2.002-13.07s-10.018-2.168-13.076 2.006l-60.927 82.955c-8.49 12.223-12.835 36.485 9.953 53.23 9.318 6.84 18.896 9.485 28.524 7.914 14.846-2.456 23.45-14.234 24.248-15.388l108.94-148.313c7.006-9.54 9.647-19.8 7.826-30.457-3.665-21.565-24.943-36.346-25.59-36.79-15.226-11.176-29.956-15.615-43.82-13.23-17.214 2.993-26.027 15.42-26.76 16.52L152.57 249.88c-.607.81-14.832 20.24-11.033 45.7 2.715 18.196 13.702 34.483 32.653 48.403z" stroke-width="2.117"/></g></svg>