<svg xmlns="http://www.w3.org/2000/svg" width="1936" height="1936" viewBox="0 0 512 512"><g stroke="#285f70" fill="#307082"><path d="M115.36 507.74c-1.236 0-2.487-.31-3.616-.932-2.472-1.35-4.013-3.992-4.013-6.835V389.3C40.953 353.955 4.26 292.053 4.26 214.493 4.26 94.635 112.477 4.26 256 4.26s251.74 90.376 251.74 210.234c0 119.843-108.218 210.218-251.74 210.218-4.714 0-9.337-.264-13.975-.513l-.305-.016-122.163 82.267c-1.266.854-2.73 1.29-4.196 1.29zM256 19.793c-134.81 0-236.483 83.71-236.483 194.7 0 51.62 17.2 121.816 99.216 163.09 2.594 1.305 4.24 4.008 4.24 6.96v100.985l112.43-75.712c1.373-.932 3.036-1.476 4.608-1.274l2.838.155c4.363.25 8.712.482 13.136.482 134.81 0 236.483-83.696 236.483-194.685S390.81 19.793 256 19.793z" stroke-width="5.292"/><path d="M124.12 318.866c0 15.36 12.504 27.8 27.8 27.8h208.14c15.36 0 27.8-12.504 27.8-27.8v-208.14c0-15.36-12.504-27.8-27.8-27.8H151.93c-15.36 0-27.8 12.504-27.8 27.8v208.14zm235.95 14.605H151.93c-8.03 0-14.605-6.575-14.605-14.605v-34.762L187.34 234.1l42.738 42.738a6.57 6.57 0 0 0 9.324 0l77.177-77.177 58.1 58.1v61.117c0 8.03-6.575 14.605-14.605 14.605zM151.93 96.12h208.14c8.03 0 14.605 6.575 14.605 14.606V239.05l-53.464-53.4a6.57 6.57 0 0 0-9.324 0L234.7 262.826l-42.738-42.738a6.57 6.57 0 0 0-9.324 0l-45.325 45.325v-154.69c0-8.03 6.575-14.606 14.605-14.606zm53.948 92.482c18.54 0 33.576-15.1 33.576-33.576s-15.1-33.576-33.576-33.576-33.576 15.1-33.576 33.576 15.037 33.576 33.576 33.576zm0-53.95c11.264 0 20.372 9.162 20.372 20.372s-9.162 20.372-20.372 20.372-20.372-9.162-20.372-20.372 9.108-20.372 20.372-20.372z" stroke-width="2.117"/></g></svg>