<svg xmlns="http://www.w3.org/2000/svg" width="1936" height="1936" viewBox="0 0 512 512"><g fill="#307082" stroke="#285f70"><path d="M115.36 507.74c-1.236 0-2.487-.31-3.616-.932-2.472-1.35-4.013-3.992-4.013-6.835V389.3C40.953 353.955 4.26 292.053 4.26 214.493 4.26 94.635 112.477 4.26 256 4.26s251.74 90.376 251.74 210.234c0 119.843-108.218 210.218-251.74 210.218-4.714 0-9.337-.264-13.975-.513l-.305-.016-122.163 82.267c-1.266.854-2.73 1.29-4.196 1.29zM256 19.793c-134.81 0-236.483 83.71-236.483 194.7 0 51.62 17.2 121.816 99.216 163.09 2.594 1.305 4.24 4.008 4.24 6.96v100.985l112.43-75.712c1.373-.932 3.036-1.476 4.608-1.274l2.838.155c4.363.25 8.712.482 13.136.482 134.81 0 236.483-83.696 236.483-194.685S390.81 19.793 256 19.793z" stroke-width="5.292"/><path d="M216.972-173.212v84.372c-4.22-3.068-9.632-4.914-15.525-4.914-13.452 0-24.396 9.617-24.396 21.44s10.944 21.44 24.396 21.44 24.396-9.617 24.396-21.44v-73.254l72.45-17.924v54.534c-4.22-3.068-9.632-4.914-15.525-4.914-13.452 0-24.396 9.617-24.396 21.44s10.944 21.44 24.396 21.44 24.396-9.617 24.396-21.44v-103.093zM392-181.22v40.3c0 16.035-12.753 29.52-28.8 29.52h-13.1c-7.282 0-13.478-6.343-13.478-13.625v-101.53c0-40.655-33.125-73.73-73.84-73.73s-73.84 33.173-73.84 73.95v101.3c0 7.282-5.6 13.625-12.893 13.625h-13.112c-16.036 0-29.375-13.485-29.375-29.522v-40.3c0-16 13.186-29.04 29.008-29.08v-16.044c0-55.317 44.955-100.32 100.2-100.32S363-281.77 363-226.576v16.264c16.702.04 29.008 13.068 29.008 29.08z" transform="matrix(1.111647 0 0 1.112428 -36.131233 420.512207)" stroke-width="2.03"/></g></svg>