<svg xmlns="http://www.w3.org/2000/svg" width="1936" height="1936" viewBox="0 0 512 512"><g stroke="#285f70" fill="#307082"><path d="M115.36 507.74c-1.236 0-2.487-.31-3.616-.932-2.472-1.35-4.013-3.992-4.013-6.835V389.3C40.953 353.955 4.26 292.053 4.26 214.493 4.26 94.635 112.477 4.26 256 4.26s251.74 90.376 251.74 210.234c0 119.843-108.218 210.218-251.74 210.218-4.714 0-9.337-.264-13.975-.513l-.305-.016-122.163 82.267c-1.266.854-2.73 1.29-4.196 1.29zM256 19.793c-134.81 0-236.483 83.71-236.483 194.7 0 51.62 17.2 121.816 99.216 163.09 2.594 1.305 4.24 4.008 4.24 6.96v100.985l112.43-75.712c1.373-.932 3.036-1.476 4.608-1.274l2.838.155c4.363.25 8.712.482 13.136.482 134.81 0 236.483-83.696 236.483-194.685S390.81 19.793 256 19.793z" stroke-width="5.292"/><path d="M422.77 230.705c-4.288-2.436-9.73-1.9-14.93 1.47l-96.062 62.25c-2.673 1.733-3.476 5.367-1.792 8.118s5.215 3.577 7.9 1.845l96.062-62.25c2.03-1.315 3.14-1.218 3.303-1.124s.836 1 .836 3.476c0 6.632-4.783 15.548-10.236 19.082l-93.127 60.35c-4.952 3.2-9.478 4.1-12.42 2.42s-4.627-6.083-4.627-12.106c0-15.257 10.6-35.015 23.145-43.145l106.035-68.714c1.663-1.078 2.672-2.96 2.672-4.982s-1-3.904-2.672-4.982L223.1 60.376c-1.863-1.207-4.234-1.207-6.096 0l-107.325 69.55c-15.25 9.884-27.2 32.154-27.2 50.704v3.14c0 18.548 11.947 40.82 27.198 50.702l159.63 103.446c2.673 1.732 6.205.906 7.9-1.845s.88-6.386-1.792-8.118L115.776 224.5c-11.846-7.676-21.854-26.332-21.854-40.74v-3.14c0-14.406 10.008-33.062 21.854-40.74l104.277-67.575L413.065 197.4l-98.347 63.732c-15.975 10.352-28.5 33.68-28.5 53.1 0 10.593 3.743 18.552 10.54 22.413 2.73 1.55 5.74 2.32 8.93 2.32 4.752 0 9.904-1.708 15.115-5.085l93.127-60.35c8.737-5.662 15.58-18.42 15.58-29.045 0-6.323-2.46-11.347-6.747-13.783zm-70.545-27.425c1.9 0 3.76-.974 4.846-2.75 1.683-2.75.88-6.386-1.792-8.12L223.1 106.756c-2.674-1.732-6.205-.906-7.9 1.845s-.88 6.386 1.792 8.118l132.178 85.655c.947.613 2 .906 3.042.906zm-22.87 15.623c1.905 0 3.766-.978 4.852-2.76 1.68-2.754.87-6.388-1.808-8.115l-55.84-36.032c-2.678-1.728-6.208-.894-7.885 1.86s-.87 6.388 1.808 8.115l55.84 36.032a5.57 5.57 0 0 0 3.033.9zm-76.1-31.403c-2.68-1.722-6.208-.882-7.882 1.876s-.857 6.4 1.823 8.1l56.268 36.155a5.58 5.58 0 0 0 3.024.894c1.908 0 3.773-.982 4.858-2.77 1.673-2.758.857-6.4-1.823-8.1zm-60.02-65.338l-47.54 30.8c-1.668 1.08-2.678 2.97-2.672 4.998s1.026 3.9 2.7 4.983l56.696 36.278c.925.592 1.972.888 3.02.888a5.6 5.6 0 0 0 3.105-.943l12.627-8.4c2.653-1.765 3.414-5.4 1.7-8.14s-5.256-3.513-7.9-1.75l-9.58 6.373-45.854-29.34 36.763-23.826 45.186 29.158-5.268 3.504c-2.653 1.765-3.414 5.4-1.7 8.14s5.258 3.513 7.9 1.75l12.814-8.523c1.642-1.093 2.628-2.973 2.615-4.985s-1.025-3.877-2.682-4.946l-55.844-36.035a5.58 5.58 0 0 0-6.086.006zM288.48 247.37c1.668-2.76.846-6.4-1.837-8.108l-56.698-36.28c-2.683-1.717-6.2-.87-7.878 1.9s-.846 6.4 1.837 8.108l56.698 36.28a5.57 5.57 0 0 0 3.015.888c1.9 0 3.78-.986 4.863-2.78zm-165.174-75.34c-1.668 2.76-.846 6.4 1.837 8.108l139.94 89.545a5.57 5.57 0 0 0 3.015.888c1.9 0 3.78-.986 4.863-2.78 1.668-2.76.846-6.4-1.837-8.108l-139.94-89.545c-2.683-1.718-6.2-.87-7.878 1.9z" stroke-width="2.117"/></g></svg>