<svg xmlns="http://www.w3.org/2000/svg" width="1936" height="1936" viewBox="0 0 512 512"><g stroke="#285f70" fill="#307082"><path d="M115.36 507.74c-1.236 0-2.487-.31-3.616-.932-2.472-1.35-4.013-3.992-4.013-6.835V389.3C40.953 353.955 4.26 292.053 4.26 214.493 4.26 94.635 112.477 4.26 256 4.26s251.74 90.376 251.74 210.234c0 119.843-108.218 210.218-251.74 210.218-4.714 0-9.337-.264-13.975-.513l-.305-.016-122.163 82.267c-1.266.854-2.73 1.29-4.196 1.29zM256 19.793c-134.81 0-236.483 83.71-236.483 194.7 0 51.62 17.2 121.816 99.216 163.09 2.594 1.305 4.24 4.008 4.24 6.96v100.985l112.43-75.712c1.373-.932 3.036-1.476 4.608-1.274l2.838.155c4.363.25 8.712.482 13.136.482 134.81 0 236.483-83.696 236.483-194.685S390.81 19.793 256 19.793z" stroke-width="5.292"/><path d="M121.44 124.22h118.876c1.133 0 2.218-.45 3.02-1.25a4.26 4.26 0 0 0 1.25-3.021V91.804a4.27 4.27 0 0 0-4.27-4.27H121.44a4.27 4.27 0 0 0-4.27 4.27v28.152a4.27 4.27 0 0 0 4.27 4.264zm0 67.7h118.876a4.28 4.28 0 0 0 3.02-1.25 4.26 4.26 0 0 0 1.25-3.02V159.5a4.27 4.27 0 0 0-4.27-4.27H121.44a4.27 4.27 0 0 0-4.27 4.27v28.15c0 2.354 1.913 4.27 4.27 4.27zm268.953 98.674H121.44a4.27 4.27 0 0 0-4.27 4.27v28.152a4.27 4.27 0 0 0 4.27 4.27h268.954a4.29 4.29 0 0 0 3.023-1.25c.803-.797 1.247-1.885 1.247-3.02v-28.152a4.27 4.27 0 0 0-4.27-4.27zM121.5 222.903c-2.357 0-4.27 1.913-4.27 4.27v28.152c0 2.357 1.913 4.27 4.27 4.27h269.06a4.3 4.3 0 0 0 3.023-1.25 4.27 4.27 0 0 0 1.247-3.021v-28.152c0-2.357-1.913-4.27-4.27-4.27zm263.276-135.37H298.68a3.6 3.6 0 0 0-3.598 3.598v62.612l-1.008-.028c-12.315 0-22.344 10.02-22.344 22.34s10.023 22.34 22.344 22.34c12.104 0 22.12-9.847 22.324-21.88l.01-.344c.006-.046.006-.088.006-.134v-56.836h50.624v34.543l-1.008-.028c-12.312 0-22.336 10.02-22.336 22.34s10.023 22.34 22.336 22.34c22.122 0 22.344-22.296 22.344-22.34v-84.93c0-1.98-1.606-3.593-3.598-3.593z" stroke-width="2.117"/></g></svg>