<svg xmlns="http://www.w3.org/2000/svg" width="1936" height="1936" viewBox="0 0 512 512"><g fill="#307082" stroke="#285f70"><path d="M115.36 507.74c-1.236 0-2.487-.31-3.616-.932-2.472-1.35-4.013-3.992-4.013-6.835V389.3C40.953 353.955 4.26 292.053 4.26 214.493 4.26 94.635 112.477 4.26 256 4.26s251.74 90.376 251.74 210.234c0 119.843-108.218 210.218-251.74 210.218-4.714 0-9.337-.264-13.975-.513l-.305-.016-122.163 82.267c-1.266.854-2.73 1.29-4.196 1.29zM256 19.793c-134.81 0-236.483 83.71-236.483 194.7 0 51.62 17.2 121.816 99.216 163.09 2.594 1.305 4.24 4.008 4.24 6.96v100.985l112.43-75.712c1.373-.932 3.036-1.476 4.608-1.274l2.838.155c4.363.25 8.712.482 13.136.482 134.81 0 236.483-83.696 236.483-194.685S390.81 19.793 256 19.793z" stroke-width="5.292"/><path d="M400.804 217.415v45.15c0 17.97-14.3 33.08-32.26 33.08H353.85c-8.16 0-15.104-7.108-15.104-15.268V166.602c0-45.558-37.12-82.622-82.745-82.622s-82.745 37.174-82.745 82.87v113.53c0 8.16-6.288 15.268-14.448 15.268h-14.693c-17.97 0-32.918-15.112-32.918-33.082v-45.15c0-17.942 14.776-32.542 32.507-32.587v-17.98c0-61.988 50.377-112.42 112.297-112.42s112.297 50.32 112.297 112.174v18.226c18.716.044 32.507 14.644 32.507 32.587zm-80.538 18.86c-13.73-2.448-26.727-8.94-37.08-19.277-10.34-10.347-16.826-23.337-19.266-37.07 13.902-8.7 34.054-5.624 48.013 8.33 13.95 13.954 17.032 34.1 8.333 48.017zm-9.593 9.595c-13.186-3.685-25.548-10.523-35.697-20.66-10.138-10.15-16.977-22.5-20.644-35.7-8.697 13.907-5.613 34.053 8.33 48.006 13.96 13.948 34.098 17.037 48 8.346zm-55.212 61.802c-17.343 0-29.744 10.84-40.685 20.398-12.1 10.57-22.567 19.732-37.983 14.98-3.05-2.246-3.14-4.082-3.175-4.705-.216-4.174 4.84-9.775 7.325-11.84.306-.25.48-.6.72-.895 4.07 1.417 8.747.598 12-2.654l78.97-65.005c-6.532-2.773-12.756-6.786-18.18-12.22-5.434-5.432-9.436-11.663-12.204-18.182l-65 78.976c-2.892 2.9-3.73 6.893-2.943 10.6-.244.15-.517.216-.743.4-1.242 1.02-12.094 10.25-11.555 21.35.193 3.903 1.894 9.537 8.942 14.255l1.4.68c4.52 1.508 8.73 2.166 12.7 2.166 15.444 0 26.966-10.068 37.38-19.175 10.313-9.016 20.06-17.53 33.042-17.53 29.927 0 53.093 32.068 53.33 32.385 1.848 2.643 5.5 3.23 8.087 1.374a5.8 5.8 0 0 0 1.383-8.085c-1.078-1.52-26.83-37.285-62.8-37.285z" stroke-width="2.117"/></g></svg>