<svg xmlns="http://www.w3.org/2000/svg" width="1936" height="1936" viewBox="0 0 512 512"><g stroke="#285f70" fill="#307082"><path d="M115.36 507.74c-1.236 0-2.487-.31-3.616-.932-2.472-1.35-4.013-3.992-4.013-6.835V389.3C40.953 353.955 4.26 292.053 4.26 214.493 4.26 94.635 112.477 4.26 256 4.26s251.74 90.376 251.74 210.234c0 119.843-108.218 210.218-251.74 210.218-4.714 0-9.337-.264-13.975-.513l-.305-.016-122.163 82.267c-1.266.854-2.73 1.29-4.196 1.29zM256 19.793c-134.81 0-236.483 83.71-236.483 194.7 0 51.62 17.2 121.816 99.216 163.09 2.594 1.305 4.24 4.008 4.24 6.96v100.985l112.43-75.712c1.373-.932 3.036-1.476 4.608-1.274l2.838.155c4.363.25 8.712.482 13.136.482 134.81 0 236.483-83.696 236.483-194.685S390.81 19.793 256 19.793z" stroke-width="5.292"/><path d="M375.282 94.965v12.306h-29.35V94.965h-12.007v22.502H178.07V94.965h-12.007v12.306h-29.35V94.965h-12.007v247.14h12.007V329.8h29.35v12.306h12.007V319.6h155.86v22.497h12.007V329.8h29.35v12.306h12.007V94.965zm-209.218 205.4h-29.35v-18.887h29.35zm0-48.225h-29.35v-18.887h29.35zm0-48.425h-29.35v-18.887h29.35zm0-48.22h-29.35V136.6h29.35zm167.86 138.967H178.07V142.608h155.86v151.855zm41.358 5.902h-29.35v-18.887h29.35zm0-48.225h-29.35v-18.887h29.35zm0-48.425h-29.35v-18.887h29.35zm0-48.22h-29.35V136.6h29.35zm-152.87 10.242v105.6L297 218.538z" stroke-width="2.122"/></g></svg>