<svg xmlns="http://www.w3.org/2000/svg" width="512" height="512"><path d="M472.643 130.414c-22.373-38.33-52.72-68.677-91.052-91.05C343.254 16.994 301.404 5.8 256.008 5.8s-87.254 11.184-125.585 33.554-68.68 52.717-91.054 91.05S5.81 210.612 5.81 256s11.187 87.247 33.554 125.584c22.372 38.33 52.72 68.677 91.053 91.052S210.613 506.2 256.003 506.2s87.254-11.185 125.587-33.554 68.677-52.723 91.048-91.052 33.55-80.196 33.55-125.584-11.182-87.257-33.545-125.586zM373.93 314.96c4.127 4.123 6.194 9.02 6.194 14.667 0 5.857-2.066 10.856-6.194 14.98l-29.316 29.325c-4.124 4.123-9.12 6.185-14.987 6.185-5.646 0-10.54-2.062-14.66-6.185l-58.964-58.97-58.966 58.97c-4.126 4.123-9.012 6.185-14.66 6.185-5.865 0-10.86-2.062-14.986-6.185l-29.32-29.325c-4.126-4.123-6.19-9.122-6.19-14.98 0-5.646 2.064-10.543 6.19-14.667L197.038 256l-58.966-58.966c-4.126-4.12-6.19-9.012-6.19-14.66 0-5.865 2.064-10.86 6.19-14.986l29.32-29.316c4.127-4.126 9.12-6.19 14.986-6.19 5.647 0 10.533 2.064 14.66 6.19l58.966 58.96 58.964-58.96c4.12-4.126 9.012-6.19 14.66-6.19 5.866 0 10.864 2.064 14.987 6.19l29.316 29.316c4.127 4.127 6.194 9.122 6.194 14.986 0 5.646-2.066 10.538-6.194 14.66L314.968 256z" stroke-width="3" fill="#666" stroke="#4d4d4d"/></svg>