<svg xmlns="http://www.w3.org/2000/svg" width="512" height="512"><g stroke-width="3"><path d="M493.992 316.004l-23.87-23.877c-9.45-9.45-25.922-9.45-35.372 0l-128.947 128.94-17.77 65.173-4.348 4.35c-3.25 3.25-3.26 8.495-.05 11.77l-.042.167.168-.042a8.35 8.35 0 0 0 5.848 2.404c2.145 0 4.3-.82 5.923-2.455l4.348-4.35 65.173-17.77 128.94-128.948a24.84 24.84 0 0 0 7.331-17.686c0-6.686-2.606-12.96-7.33-17.678zM325.15 425.422l85.817-85.817 35.548 35.548-85.817 85.817zm-7.565 16.128l26.977 26.978-37.1 10.112zm164.562-102.03l-23.785 23.786-35.548-35.548 23.785-23.786c3.117-3.117 8.554-3.125 11.67 0l23.878 23.877c1.558 1.56 2.42 3.628 2.42 5.832a8.25 8.25 0 0 1-2.421 5.839z" fill="#894b03" stroke="#673802"/><path d="M284.515 406.806h-181.68a8.38 8.38 0 0 1-8.378-8.378 8.38 8.38 0 0 1 8.378-8.378H301.28l103.168-103.168V126.86L282.244 4.657H10.677v502.687h245.545l27.086-99.33zM270.398 21.413L387.69 138.707H270.398zM102.836 121.95h83.78a8.38 8.38 0 0 1 8.378 8.378 8.38 8.38 0 0 1-8.378 8.378h-83.78a8.38 8.38 0 0 1-8.378-8.378 8.38 8.38 0 0 1 8.378-8.378zm0 67.025h209.452a8.38 8.38 0 0 1 8.378 8.378 8.38 8.38 0 0 1-8.378 8.378h-209.452a8.38 8.38 0 0 1-8.378-8.378 8.38 8.38 0 0 1 8.378-8.378zm0 67.025h209.452a8.38 8.38 0 0 1 8.378 8.378 8.38 8.38 0 0 1-8.378 8.378H102.836a8.38 8.38 0 0 1-8.378-8.378 8.38 8.38 0 0 1 8.378-8.378zm0 67.025h209.452a8.38 8.38 0 0 1 8.378 8.378 8.38 8.38 0 0 1-8.378 8.378h-209.452a8.38 8.38 0 0 1-8.378-8.378 8.38 8.38 0 0 1 8.378-8.378z" fill="#307082" stroke="#285f70"/></g></svg>