<svg xmlns="http://www.w3.org/2000/svg" width="512" height="512"><g transform="matrix(1.157403 0 0 1.154392 2.972925 2.731313)" stroke-width=".865"><g fill="#307082"><path d="M432.823 121.05c-3.806-9.132-8.377-16.367-13.71-21.695l-79.94-79.942c-5.325-5.325-12.56-9.895-21.696-13.704C308.346 1.903 299.97 0 292.357 0H27.41c-7.61 0-14.084 2.663-19.414 7.993S.003 19.792.003 27.407v383.72c0 7.617 2.662 14.09 7.992 19.417s11.803 7.99 19.414 7.99h383.718c7.618 0 14.09-2.666 19.417-7.99s7.987-11.8 7.987-19.417V146.178c0-7.616-1.902-16-5.708-25.13zM182.725 45.677c0-2.474.905-4.61 2.714-6.423 1.807-1.804 3.95-2.708 6.423-2.708h54.82c2.468 0 4.61.902 6.417 2.708 1.813 1.812 2.717 3.95 2.717 6.423v91.362c0 2.478-.9 4.618-2.717 6.427-1.808 1.803-3.95 2.708-6.417 2.708h-54.82c-2.474 0-4.617-.902-6.423-2.708-1.81-1.812-2.714-3.95-2.714-6.427V45.677zm146.18 356.314H109.633V292.355h219.273zm73.094 0h-36.56V283.218c0-7.617-2.663-14.085-7.99-19.417s-11.8-7.994-19.4-7.994H100.498c-7.614 0-14.087 2.666-19.417 7.994s-7.992 11.8-7.992 19.417V401.99H36.544V36.542h36.544v118.77c0 7.615 2.662 14.084 7.992 19.414s11.803 7.993 19.417 7.993h164.456c7.6 0 14.09-2.666 19.4-7.993s7.994-11.8 7.994-19.414V36.542c2.854 0 6.563.95 11.136 2.853s7.806 3.805 9.71 5.708l80.232 80.23c1.902 1.903 3.806 5.2 5.708 9.85 1.91 4.665 2.857 8.33 2.857 10.994V401.99z"/><path d="M15.24 434.8c-5.572-2.758-8.893-6.113-11.614-11.734-3.768-7.784-3.81-10.052-3.81-203.86V23.217l4.18-8.154C12.12-.784 2.57.13 159.858.13c132.923 0 139.23.154 150.62 3.672 6.54 2.02 15.616 6.15 20.17 9.177s27.708 25.055 51.45 48.95c38.224 38.47 43.863 44.92 49.242 56.324l6.075 12.88v289.878l-4.144 5.8c-8.963 12.565 4.055 11.843-213.545 11.84-195.423-.001-196.738-.026-204.5-3.864zm58.903-96.57c0-69.987.084-70.54 11.788-77.772 6.24-3.856 7.6-3.896 133.37-3.89 124.145.007 127.208.093 133.214 3.755 3.55 2.164 7.655 7.07 9.715 11.607 3.282 7.23 3.57 12.724 3.608 68.715l.04 60.856h37.26l-.513-130.538c-.51-130.165-.524-130.56-4.566-137.97-4.947-9.072-84.643-88.582-92.945-92.727-3.27-1.633-7.63-2.97-9.687-2.97-3.667 0-3.75 1.278-4.273 65.008l-.533 65.008-13.998 13.994H183.28c-90.453 0-93.496-.115-98.296-3.716-10.874-8.158-10.84-7.93-10.84-76.937V37.295H36.978V401.5h37.164zm254.572 8.454v-54.817H109.447V401.5h219.266zm-76.186-203.472c3.523-3.523 3.716-6.194 3.716-51.222 0-29.194-.74-48.892-1.924-51.1-1.792-3.348-4.203-3.594-35.24-3.594s-33.448.246-35.24 3.594c-1.182 2.21-1.924 21.907-1.924 51.1 0 45.028.194 47.7 3.716 51.222 3.407 3.407 6.194 3.716 33.447 3.716s30.04-.3 33.447-3.716z" stroke="#285f70" stroke-width="2.595" stroke-linejoin="round"/></g><path d="M112.15 397.307c-.5-1.3-.685-24.93-.412-52.51l.496-50.143h213.692v104.06l-106.434.48c-84.813.382-106.618-.001-107.342-1.886z" fill="#894b03" stroke="#673802" stroke-width="4.326" stroke-linejoin="round"/></g></svg>