<svg xmlns="http://www.w3.org/2000/svg" width="512" height="512"><path d="M484.084 90.925c-1.967-1.964-4.484-2.952-7.544-2.952h-101.4L352.157 33.17c-3.28-8.097-9.2-15-17.717-20.678-8.536-5.687-17.182-8.53-25.93-8.53h-105c-8.75 0-17.393 2.842-25.925 8.53s-14.44 12.58-17.724 20.678l-22.97 54.803H35.463c-3.066 0-5.578.988-7.55 2.952-1.964 1.97-2.952 4.486-2.952 7.548v21.005c0 3.063.983 5.58 2.952 7.545s4.488 2.952 7.55 2.952h31.502V442.4c0 18.166 5.142 33.64 15.424 46.437 10.284 12.804 22.646 19.2 37.086 19.2h273.047c14.444 0 26.804-6.617 37.088-19.85 10.282-13.242 15.42-28.937 15.42-47.095V129.976h31.508c3.06 0 5.578-.984 7.544-2.952s2.954-4.483 2.954-7.545V98.473c.002-3.062-1-5.58-2.953-7.548zM198.57 49.57c1.53-1.968 3.4-3.175 5.578-3.6H308.18c2.187.438 4.052 1.644 5.58 3.6l15.758 38.397H182.5zm204.46 391.524c0 4.812-.763 9.244-2.298 13.3s-3.123 6.998-4.76 8.858c-1.645 1.864-2.785 2.8-3.446 2.8h-273.05c-.656 0-1.8-.925-3.444-2.8s-3.23-4.814-4.762-8.858-2.295-8.482-2.295-13.3v-311.12h294.052v311.12zm-241.543-38.068h21.002c3.066 0 5.584-.983 7.55-2.95 1.964-1.975 2.952-4.484 2.952-7.552V203.5c0-3.06-.987-5.578-2.952-7.548s-4.482-2.95-7.55-2.95h-21.002c-3.066 0-5.58.983-7.55 2.95s-2.952 4.487-2.952 7.548v189.035c0 3.068.982 5.578 2.952 7.552 1.97 1.967 4.483 2.95 7.55 2.95zm84.013 0h21.002c3.064 0 5.582-.983 7.545-2.95 1.975-1.975 2.953-4.484 2.953-7.552V203.5c0-3.06-.98-5.578-2.953-7.548-1.963-1.965-4.48-2.95-7.545-2.95H245.5c-3.062 0-5.58.983-7.55 2.95S235 200.428 235 203.5v189.035c0 3.068.982 5.578 2.952 7.552 1.968 1.967 4.486 2.95 7.55 2.95zm84.016 0h21c3.068 0 5.585-.983 7.552-2.95 1.967-1.975 2.945-4.484 2.945-7.552V203.5c0-3.06-.98-5.578-2.945-7.548s-4.484-2.95-7.552-2.95h-21c-3.07 0-5.578.983-7.553 2.95-1.967 1.97-2.95 4.487-2.95 7.548v189.035c0 3.068.983 5.578 2.95 7.552 1.975 1.967 4.484 2.95 7.553 2.95z" stroke-width="3" fill="#307082" stroke="#285f70"/><path d="M154.1 400.308c-1.646-1.646-2.184-26.96-2.184-102.753 0-115.786-2.197-104.337 20.017-104.337s20.017-11.45 20.017 104.337c0 75.794-.538 101.107-2.184 102.753-1.36 1.36-8.088 2.184-17.834 2.184s-16.474-.824-17.834-2.184zm84.384-.676c-2.53-2.53-2.86-14.28-2.86-101.777s.33-99.247 2.86-101.777c2.144-2.144 6.67-2.86 18.094-2.86 13.68 0 15.524.413 18.068 4.045 2.478 3.537 2.833 16.154 2.833 100.592s-.355 97.055-2.833 100.592c-2.544 3.632-4.387 4.044-18.068 4.044-11.424 0-15.95-.715-18.094-2.86zm83.72 0c-2.53-2.53-2.86-14.265-2.86-101.625 0-115.337-2.156-104.8 21.422-104.8 13.196 0 15.068.43 17.6 4.045 2.478 3.537 2.833 16.154 2.833 100.592s-.355 97.055-2.833 100.592c-2.544 3.632-4.387 4.044-18.068 4.044-11.424 0-15.95-.715-18.094-2.86z" stroke-linejoin="round" stroke-width="8" stroke="#673802" fill="#894b03"/><path d="M354.76 198.26c-85.777 0-156.07 70.293-156.07 156.07s70.293 156.07 156.07 156.07 156.07-70.293 156.07-156.07-70.293-156.07-156.07-156.07zm0 0" fill="#ff6c6c"/><path d="M510.83 354.33c0 85.777-70.293 156.07-156.07 156.07V198.26c85.777 0 156.07 70.293 156.07 156.07zm0 0" fill="#ff4949"/><path d="M245.024 317.75v73.157h219.473V317.75zm0 0" fill="#deecf1"/><path d="M354.76 317.75h109.736v73.157H354.76zm0 0" fill="#c6e2e7"/></svg>