<svg xmlns="http://www.w3.org/2000/svg" viewBox="0 0 469.333 469.333" width="512" height="512"><path d="M234.666 358.705c-68.518 0-124.015-55.508-124.015-124.04 0-20.983 5.27-40.623 14.365-57.988L94.84 146.495c-16.02 25.634-25.527 55.714-25.527 88.17 0 91.375 73.996 165.385 165.354 165.385v62.02l82.677-82.693-82.677-82.692zm0-289.425V7.262L152 89.954l82.677 82.692v-62.02c68.518 0 124.015 55.507 124.015 124.04 0 20.983-5.27 40.622-14.365 57.988l30.177 30.183c16.018-25.634 25.527-55.713 25.527-88.17C400.02 143.3 326.024 69.28 234.666 69.28z" stroke-width="2.75" fill="#307082" stroke="#285f70"/></svg>