<svg xmlns="http://www.w3.org/2000/svg" width="512" height="512"><g transform="matrix(.993108 0 0 .993108 3.569695 3.112537)"><path d="M483.85 88.422c-1.98-1.978-4.515-2.973-7.596-2.973H374.138l-23.132-55.182c-3.303-8.153-9.253-15.093-17.84-20.822-8.595-5.727-17.302-8.6-26.1-8.6H201.308c-8.8 0-17.513 2.862-26.105 8.6s-14.54 12.667-17.847 20.822l-23.13 55.183h-102.1c-3.087 0-5.617.995-7.6 2.973s-2.972 4.517-2.972 7.6v21.15c0 3.084 1 5.618 2.972 7.598s4.52 2.972 7.6 2.972h31.72v314.594c0 18.3 5.177 33.874 15.53 46.76C89.722 502 102.17 508.43 116.7 508.43h274.942c14.544 0 27-6.663 37.345-19.987 10.353-13.334 15.527-29.138 15.527-47.422V127.743h31.727c3.08 0 5.617-1 7.596-2.972s2.975-4.514 2.975-7.598v-21.15c.002-3.083-.997-5.618-2.973-7.6zM196.353 46.78c1.54-1.98 3.414-3.197 5.617-3.634h104.754c2.203.44 4.08 1.655 5.618 3.634L328.2 85.445H180.16zM402.23 441.023c0 4.845-.77 9.308-2.314 13.38s-3.145 7.047-4.793 8.92c-1.656 1.877-2.805 2.8-3.47 2.8h-274.94c-.66 0-1.8-.932-3.468-2.8s-3.252-4.847-4.795-8.92-2.3-8.54-2.3-13.38v-313.28h296.1v313.28zM159.013 402.7h21.148c3.087 0 5.623-1 7.6-2.97 1.978-1.988 2.972-4.515 2.972-7.604v-190.35c0-3.082-.994-5.617-2.972-7.6-1.984-1.978-4.513-2.97-7.6-2.97h-21.148c-3.087 0-5.618 1-7.6 2.97s-2.972 4.518-2.972 7.6v190.347c0 3.1.988 5.617 2.972 7.604 1.983 1.98 4.514 2.97 7.6 2.97zm84.587 0h21.148c3.086 0 5.62-1 7.598-2.97 1.988-1.988 2.973-4.515 2.973-7.604v-190.35c0-3.082-.986-5.617-2.973-7.6-1.977-1.978-4.512-2.97-7.598-2.97H243.6c-3.083 0-5.618 1-7.6 2.97s-2.972 4.518-2.972 7.6v190.347c0 3.1.988 5.617 2.972 7.604 1.982 1.98 4.518 2.97 7.6 2.97zm84.598 0h21.144c3.1 0 5.624-1 7.604-2.97 1.98-1.988 2.965-4.515 2.965-7.604v-190.35c0-3.082-.986-5.617-2.965-7.6s-4.515-2.97-7.604-2.97h-21.144c-3.1 0-5.617 1-7.606 2.97-1.98 1.984-2.97 4.518-2.97 7.6v190.347c0 3.1 1 5.617 2.97 7.604 1.988 1.98 4.515 2.97 7.606 2.97z" stroke-width="3.021" fill="#307082" stroke="#285f70"/><path d="M151.584 399.952c-1.657-1.657-2.2-27.146-2.2-103.466 0-116.6-2.212-105.06 20.156-105.06s20.156-11.53 20.156 105.06c0 76.32-.542 101.8-2.2 103.466-1.37 1.37-8.144 2.2-17.957 2.2s-16.588-.83-17.957-2.2zm84.97-.682c-2.547-2.547-2.88-14.378-2.88-102.483s.332-99.936 2.88-102.483c2.16-2.16 6.717-2.88 18.22-2.88 13.775 0 15.632.416 18.193 4.073 2.495 3.562 2.852 16.266 2.852 101.3s-.358 97.73-2.852 101.3c-2.56 3.657-4.418 4.073-18.193 4.073-11.503 0-16.06-.72-18.22-2.88zm84.29 0c-2.547-2.547-2.88-14.364-2.88-102.33 0-116.138-2.17-105.516 21.57-105.516 13.288 0 15.172.433 17.722 4.073 2.495 3.562 2.852 16.266 2.852 101.3s-.358 97.73-2.852 101.3c-2.56 3.657-4.418 4.073-18.193 4.073-11.503 0-16.06-.72-18.22-2.88z" stroke-linejoin="round" stroke-width="8.056" stroke="#673802" fill="#894b03"/></g></svg>