<svg xmlns="http://www.w3.org/2000/svg" width="512" height="512"><g stroke-width="3"><path d="M413.682 276.668c-40.808 0-73.9 33.08-73.9 73.9v21.11a10.56 10.56 0 0 0 10.556 10.556 10.56 10.56 0 0 0 10.556-10.556v-21.11c0-29.148 23.63-52.778 52.778-52.778s52.778 23.63 52.778 52.778v21.11a10.56 10.56 0 0 0 10.556 10.556 10.56 10.56 0 0 0 10.556-10.556v-21.11c0-40.808-33.082-73.9-73.9-73.9z" fill="#307082" stroke="#285f70"/><path d="M329.238 361.114h168.9a10.56 10.56 0 0 1 10.556 10.556v126.667a10.56 10.56 0 0 1-10.556 10.556h-168.9a10.56 10.56 0 0 1-10.556-10.556V371.67c0-5.83 4.725-10.556 10.556-10.556z" fill="#894b03" stroke="#673802"/><path d="M297.57 498.336V371.668a31.67 31.67 0 0 1 22.019-30 94.6 94.6 0 0 1 5.173-22.209 122.27 122.27 0 0 1-4.223-16.89 87.78 87.78 0 0 0 31.118-57.127 17.29 17.29 0 0 1 2.554-10.873c3.29-.824 5.986-3.18 7.24-6.333a157.03 157.03 0 0 0 11.316-46.128 10.54 10.54 0 0 0-.317-2.554 27.17 27.17 0 0 0-10.239-15.369V108.22C359.905 50.908 313.97 4.974 256.657 2.666 199.343 4.974 153.41 50.908 151.1 108.222v55.966c-5.102 3.77-8.725 9.208-10.24 15.37a10.54 10.54 0 0 0-.317 2.554c1.41 15.868 5.225 31.43 11.316 46.15.914 2.984 3.312 5.278 6.333 6.06 1.16.6 3.377 3.652 3.377 11.125a87.78 87.78 0 0 0 31.203 57.17c-2.11 13.827-12.52 50.287-34.538 59.49L64.65 393.224a73.57 73.57 0 0 0-48.344 52.293L3.64 496.184a10.56 10.56 0 0 0 7.635 12.828c.85.216 1.726.325 2.605.325h285.76a31.32 31.32 0 0 1-2.069-11z" fill="#307082" stroke="#285f70"/><path d="M434.793 424.447c0-11.66-9.452-21.11-21.11-21.11s-21.11 9.45-21.11 21.11c.094 7.406 4.113 14.206 10.556 17.86v13.807a10.56 10.56 0 0 0 10.556 10.556 10.56 10.56 0 0 0 10.556-10.556v-13.807a20.84 20.84 0 0 0 10.554-17.86z" fill="#fafafa" stroke="#673802"/></g></svg>