<svg xmlns="http://www.w3.org/2000/svg" width="512" height="512"><path d="M185.04 438.05c-10.267 0-20.545-3.916-28.378-11.755L14.74 284.373c-15.677-15.677-15.677-41.09 0-56.766s41.09-15.677 56.766 0L185.04 341.14 440.495 85.7c15.677-15.672 41.095-15.677 56.76 0 15.68 15.677 15.68 41.095 0 56.766l-283.833 283.84a40.03 40.03 0 0 1-28.384 11.755z" fill="#3f8c07" stroke="#357706" stroke-width="3"/><path d="M369.456 228.833c-77.29 0-140.625 63.337-140.625 140.625s63.337 140.625 140.625 140.625 140.625-63.337 140.625-140.625-63.337-140.625-140.625-140.625zm0 0" fill="#ff6c6c"/><path d="M510.082 369.46c0 77.29-63.337 140.625-140.625 140.625v-281.25c77.29 0 140.625 63.337 140.625 140.625zm0 0" fill="#ff4949"/><path d="M270.58 336.5v65.918h197.754V336.5zm0 0" fill="#deecf1"/><path d="M369.456 336.5h98.877v65.918h-98.877zm0 0" fill="#c6e2e7"/></svg>