<svg xmlns="http://www.w3.org/2000/svg" height="682" viewBox="-45 1 511 511.999" width="682"><g stroke-width="2.254"><path d="M419.652 414.97l-53.95-150.227c26.453-36.168 33.4-83.645 17.988-126.008-12.336-33.895-37.12-60.95-69.8-76.184-7.355-3.434-14.96-5.945-22.64-7.988-5.86-1.562-11.78-11.648-17.742-12.324s-11.957 8.047-17.973 8.11c-15.113.16-30.25 2.38-44.875 7.703a131.84 131.84 0 0 0-5.902 2.285l60.012 140.29-59.996 108.836c6.477 2.71 13.168 4.906 19.98 6.594l12.906 36.45c1.36 3.734 4.145 6.78 7.746 8.465l24.86 12.6-11.586 24.855c-3.504 7.516-.25 16.438 7.25 19.938l24.86 11.586-11.6 24.86c-3.5 7.516-.246 16.438 7.254 19.938l76.902 35.86c2.05.953 4.203 1.406 6.328 1.406 5.652 0 11.06-3.21 13.61-8.656l35.86-76.906c1.688-3.602 1.863-7.734.5-11.47zm0 0" fill="#894b03" stroke="#593001"/><g stroke="#285f70"><path d="M210.563 58.2C140.36 32.402 62.96 68.7 37.46 138.602c-15.3 42.3-8.7 89.7 18 126-1.5 4.5-54 150.5-54 150.5-1.5 3.598-1.203 7.8.598 11.398l35.7 76.8c1.8 3.898 4.805 6.598 8.402 7.797s7.8 1.203 11.7-.598l77.102-35.7c7.2-3.902 10.5-12.602 6.898-20.102-1.2-2.398-9.898-21.598-11.398-24.898l24.898-11.402c7.203-3.898 10.5-12.598 7.203-20.098-1.5-2.402-10.203-21.602-11.7-24.602 2.7-1.5 24.898-12.7 25.2-12.7 3.598-2.098 6-4.797 7.5-8.398.898-3.3 12.598-36.402 12.898-36.402 43.5-10.8 79.2-42.898 94.8-85.2 25.496-69.898-10.8-147.598-80.7-172.8zm6.297 114c-8.398 23.102-34.2 35.402-57.602 26.703C135.86 190.5 123.86 164.7 132.262 141.3s34.496-35.398 57.598-27h.3c23.102 9 35.098 34.2 26.7 57.898zm0 0" fill="#3e90a7"/><path d="M291.262 54.602c-11.7-3.3-23.7-4.5-35.7-4.2C247.16 37.8 236.66 30 225.563 30c-1.5 0-2.703 0-4.203.3-22.5 3.602-40.797 36.598-40.797 74.7 0 6.898.598 13.5 1.797 20.102 1.2 8.098-4.2 15.898-12.297 17.098-.902.3-1.8.3-2.703.3-7.2 0-13.5-5.098-14.7-12.3-1.5-8.098-2.098-16.797-2.098-25.2 0-58.8 32.996-105 75-105 2.398 0 5.098.3 7.5.902 24.898 3 46.496 23.398 58.2 53.7zm0 0" fill="#307082"/></g></g><path d="M287.94 51.754c-11.7-3.3-18.41-1.856-30.41-1.555-9.487-12.534-12.763-17.816-28.44-21.894-1.227-.32-5.415-.17-6.508-.106l10.076-25.602c26.4 3.34 46.36 25.297 55.284 49.157z" fill="#1f4854"/><path d="M291.262 231c-15.602 42.3-51.3 74.402-94.8 85.2-.3 0-12 33.102-12.902 36.402-1.5 3.602-3.898 6.3-7.5 8.398-.297 0-22.5 11.203-25.2 12.7 1.5 3 10.2 22.203 11.703 24.602 3.297 7.5 0 16.2-7.203 20.098-.297 0-22.2 10.2-24.898 11.402L141.86 454.7c3.602 7.5.297 16.2-6.902 20.102-.297 0-69 31.8-77.098 35.7-3.898 1.8-8.102 1.8-11.7.598l113.098-312.195c23.402 8.7 49.203-3.602 57.602-26.703 8.398-23.695-3.598-48.898-26.7-57.898L210.563 58.2c69.898 25.203 106.195 102.902 80.7 172.8zm0 0" fill="#307082"/></svg>