<svg xmlns="http://www.w3.org/2000/svg" viewBox="0 0 512 512"><defs><linearGradient gradientTransform="matrix(390.9818,0,0,-167.5636,19169.621,109289.36)" y2="651.036" x2="-48.103" y1="652.305" x1="-48.647" gradientUnits="userSpaceOnUse" id="A"><stop offset="0" stop-color="#D4E1F4"/><stop offset=".172" stop-color="#D4E1F4"/><stop offset=".2" stop-color="#D4E1F4"/><stop offset=".2" stop-color="#DAE4F4"/><stop offset=".201" stop-color="#EBEBF4"/><stop offset=".201" stop-color="#F6F1F4"/><stop offset=".202" stop-color="#FDF4F4"/><stop offset=".205" stop-color="#FFF5F4"/><stop offset=".252" stop-color="#FFF5F4"/><stop offset=".26" stop-color="#FFF5F4"/><stop offset=".26" stop-color="#D4E1F4"/><stop offset=".397" stop-color="#D4E1F4"/><stop offset=".42" stop-color="#D4E1F4"/><stop offset=".42" stop-color="#DAE4F4"/><stop offset=".421" stop-color="#EBEBF4"/><stop offset=".421" stop-color="#F6F1F4"/><stop offset=".422" stop-color="#FDF4F4"/><stop offset=".425" stop-color="#FFF5F4"/><stop offset=".489" stop-color="#FFF5F4"/><stop offset=".5" stop-color="#FFF5F4"/><stop offset=".5" stop-color="#F9F2F4"/><stop offset=".5" stop-color="#E8EBF4"/><stop offset=".5" stop-color="#DDE5F4"/><stop offset=".5" stop-color="#D6E2F4"/><stop offset=".501" stop-color="#D4E1F4"/><stop offset=".706" stop-color="#D4E1F4"/><stop offset=".74" stop-color="#D4E1F4"/><stop offset=".741" stop-color="#FFF5F4"/><stop offset=".835" stop-color="#FFF5F4"/><stop offset=".85" stop-color="#FFF5F4"/><stop offset=".851" stop-color="#D4E1F4"/></linearGradient></defs><g transform="translate(-1.309 2.727)"><path d="M32.998 83.782C39.805 42.248 137.024 9.31 256 9.31V502.69c-118.975 0-216.194-32.94-223.002-74.473h-.416V83.782z" fill="#fff"/><path d="M479.002 83.782C472.195 42.248 374.976 9.31 256 9.31V502.69c118.975 0 216.194-32.94 223.002-74.473h.416V83.782z" fill="#5faec4"/><g fill="#4299b2"><path d="M451.075 83.782C444.268 42.248 402.903 9.31 283.927 9.31S67.732 42.248 60.925 83.782h-.416v344.436h.416c6.808 41.532 104.027 74.473 223.002 74.473s160.34-32.94 167.148-74.473h.416V83.782z"/><ellipse cx="279.273" cy="93.091" rx="209.455" ry="83.782"/></g><ellipse cx="242.036" cy="93.091" rx="209.455" ry="83.782" fill="#fff"/><ellipse cx="256" cy="93.091" rx="195.491" ry="83.782" fill="url(#A)"/><g fill="#307082"><path d="M257.31 509.273c-122.282 0-220.645-34.018-231.636-79.582a8.73 8.73 0 0 1-1.091-4.2V81.055c-.004-1.578.396-3.13 1.164-4.51C37.09 31.146 135.29-2.727 257.31-2.727s220.218 33.873 231.564 79.273a9.23 9.23 0 0 1 1.164 4.509V425.49c.004 1.578-.396 3.13-1.164 4.51-11.355 45.4-109.555 79.273-231.564 79.273zM43.2 422.764c.13.398.23.806.3 1.218 5.273 32.2 92.455 66.673 213.81 66.673s208.536-34.473 213.81-66.673a9.66 9.66 0 0 1 .3-1.255V83.782c-.13-.402-.23-.812-.3-1.227-5.264-32.19-92.436-66.664-213.81-66.664S48.764 50.364 43.5 82.555c-.07.428-.17.85-.3 1.264z"/><path d="M257.31 416.182c-122.282 0-220.645-34.018-231.636-79.582a8.73 8.73 0 0 1-1.091-4.2V211.382a9.31 9.31 0 0 1 9.309-9.309 9.31 9.31 0 0 1 9.309 9.309c0 35.155 91.564 74.473 214.11 74.473s214.11-39.318 214.11-74.473a9.31 9.31 0 0 1 9.309-9.309 9.31 9.31 0 0 1 9.309 9.309V332.4c.004 1.578-.396 3.13-1.164 4.51-11.354 45.4-109.554 79.273-231.563 79.273zM43.2 329.673a8.8 8.8 0 0 1 .3 1.218c5.273 32.2 92.455 66.673 213.81 66.673s208.536-34.473 213.81-66.673a9.67 9.67 0 0 1 .3-1.255v-81.772c-35.545 33.245-118.136 56.61-214.11 56.61S78.745 281.11 43.2 247.864z"/><path d="M257.31 304.473c-122.282 0-220.645-34.018-231.636-79.582a8.73 8.73 0 0 1-1.091-4.2V99.673a9.31 9.31 0 0 1 9.309-9.309 9.31 9.31 0 0 1 9.309 9.309c0 35.155 91.564 74.473 214.11 74.473s214.11-39.318 214.11-74.473a9.31 9.31 0 0 1 9.309-9.309 9.31 9.31 0 0 1 9.309 9.309V220.69c.004 1.578-.396 3.13-1.164 4.51-11.354 45.4-109.554 79.273-231.563 79.273zM43.2 217.964c.13.398.23.806.3 1.218 5.273 32.2 92.455 66.673 213.81 66.673s208.536-34.473 213.81-66.673a9.67 9.67 0 0 1 .3-1.255v-81.772c-35.545 33.245-118.136 56.61-214.11 56.61S78.745 169.4 43.2 136.155z"/></g></g></svg>