<svg xmlns="http://www.w3.org/2000/svg" width="512" height="512"><g stroke-width="3"><path d="M414.1 3.04H97.9v221.34H414.1zm-31.62 189.72H129.52V34.66H382.48z" fill="#a7ac93" stroke="#666"/><path d="M445.72 224.38V256H66.28v-31.62c-34.925 0-63.24 28.316-63.24 63.24v189.72c0 17.478 14.143 31.62 31.62 31.62H477.34c17.478 0 31.62-14.142 31.62-31.62V287.62c0-34.924-28.316-63.24-63.24-63.24zM414.1 445.72c0 17.478-14.142 31.62-31.62 31.62H129.52c-17.478 0-31.62-14.142-31.62-31.62V414.1H414.1zm47.43-94.86h-31.62c-8.74 0-15.8-7.07-15.8-15.8s7.07-15.8 15.8-15.8h31.62c8.74 0 15.8 7.07 15.8 15.8s-7.07 15.8-15.8 15.8z" fill="#a0892c" stroke="#6f5537"/><path d="M161.14 66.28h189.72V97.9H161.14zm0 63.24h189.72v31.62H161.14z" stroke="#666" fill="#a7ac93"/></g></svg>