<svg xmlns="http://www.w3.org/2000/svg" height="683" viewBox="0 -18 512 512" width="683"><g transform="matrix(.978814 0 0 .978814 5.423772 4.992713)"><path d="M502.578 364.8L321.7 38.7C308.2 14.7 283.598 0 256 0s-52.2 14.7-65.7 38.7L9.422 364.8C-3.48 388.2-3.18 416.102 10.62 439.2c13.5 23.102 37.8 36.902 64.5 36.902H436.88c26.7 0 51-13.8 64.5-36.902 13.8-23.098 14.102-51 1.2-74.398zm0 0" fill="#fdbf00"/><path d="M501.38 439.2c-13.5 23.102-37.797 36.902-64.5 36.902H256V0c27.598 0 52.2 14.7 65.7 38.7L502.578 364.8c12.902 23.398 12.602 51.3-1.2 74.398zm0 0" fill="#ff9f00"/><path d="M211 86.102v225h90v-225zm45 255c-24.902 0-45 20.098-45 45s20.098 45 45 45 45-20.102 45-45-20.098-45-45-45zm0 0" fill="#5a5a5a"/><path d="M301 386.102c0 24.898-20.098 45-45 45v-90c24.902 0 45 20.098 45 45zm-45-300h45v225h-45zm0 0" fill="#444"/></g></svg>