<svg xmlns="http://www.w3.org/2000/svg" width="512" height="512"><path d="M501.4 61.6c-9.947-9.976-26.068-9.972-36.005.003L236.897 290.786 131.642 185.22a25.41 25.41 0 0 0-36.005-.003c-9.947 9.973-9.947 26.14-.003 36.1l123.26 123.627a25.42 25.42 0 0 0 18.006 7.48c6.752 0 13.23-2.7 18.006-7.48L501.397 97.7c9.936-9.97 9.936-26.138-.007-36.1zm-54.984 163.64c-14.06 0-25.46 11.43-25.46 25.535V439.97H54.082V72.03h290.5c14.065 0 25.46-11.43 25.46-25.535s-11.396-25.535-25.46-25.535H28.62c-14.06 0-25.46 11.43-25.46 25.535v419.012c0 14.106 11.4 25.535 25.46 25.535h417.794c14.064 0 25.46-11.43 25.46-25.535V250.774c0-14.102-11.396-25.535-25.46-25.535z" stroke-width="3" fill="#3f8c07" stroke="#357706"/></svg>