<svg xmlns="http://www.w3.org/2000/svg" xmlns:xlink="http://www.w3.org/1999/xlink" viewBox="0 0 512 512"><defs><clipPath id="A"><path d="M-702.915-67.328h264.678v511.772h-264.678z" fill="#3f8c07"/></clipPath><mask maskUnits="userSpaceOnUse" id="B"><path d="M-461.7 241.355h55.328c0-27.016-2.616-44.845-7.864-53.504-5.24-8.66-18.992-17.598-41.256-26.816l-21.224-9.06c-17.648-7.308-26.472-22.09-26.472-44.334 0-18.437 3.304-30.3 9.896-35.635 6.6-5.317 21.344-7.98 44.232-7.98 21.472 0 35.776 2.822 42.928 8.46 7.16 5.645 10.736 16.886 10.736 33.732l-.24 12.393h54.136l-.232-11.913c0-35.123-7.544-58.757-22.656-70.9-15.104-12.153-44.592-18.23-88.48-18.23-38.792 0-65.304 6.276-79.528 18.83s-21.344 35.827-21.344 69.83c0 26.848 3.496 45.637 10.496 56.366 6.992 10.73 22.496 21.17 46.496 31.34 23.376 9.85 35.056 23.122 35.056 39.808v7.62h-.01zm.72 45.757v58.63h54.608v-58.63z" fill="#fff"/></mask><path id="C" d="M-250.38 444.746H-643.45c-32.84 0-59.464-26.624-59.464-59.464V-7.8c0-32.84 26.624-59.464 59.464-59.464h393.072c32.84 0 59.464 26.624 59.464 59.464v393.072c0 32.84-26.624 59.464-59.464 59.464z"/></defs><path d="M452.536 512H59.464C26.624 512 0 485.376 0 452.536V59.464C0 26.624 26.624 0 59.464 0h393.072C485.376 0 512 26.624 512 59.464v393.072c0 32.84-26.624 59.464-59.464 59.464z" fill="#E21B1B"/><use xlink:href="#C" clip-path="url(#A)" transform="matrix(-1 0 0 1.000596 -190.795364 67.300858)" fill="#a61414" fill-opacity=".692"/><path d="M270.904 308.8h-55.328c0-27.032 2.616-44.872 7.864-53.536 5.24-8.664 18.992-17.608 41.256-26.832l21.224-9.064c17.648-7.312 26.472-22.104 26.472-44.36 0-18.448-3.304-30.328-9.896-35.656-6.6-5.32-21.344-7.984-44.232-7.984-21.472 0-35.776 2.824-42.928 8.464-7.16 5.648-10.736 16.896-10.736 33.752l.24 12.4h-54.136l.232-11.92c0-35.144 7.544-58.792 22.656-70.952 15.104-12.16 44.592-18.24 88.48-18.24 38.792 0 65.304 6.28 79.528 18.84s21.344 35.848 21.344 69.872c0 26.864-3.496 45.664-10.496 56.4-6.992 10.736-22.496 21.184-46.496 31.36-23.376 9.856-35.056 23.136-35.056 39.832v7.624h.008zm-.72 45.784v58.664h-54.608v-58.664h54.608z" fill="#fff"/><use xlink:href="#C" transform="matrix(-1 0 0 1.000596 -190.805344 67.300858)" clip-path="url(#A)" mask="url(#B)" fill="#a61414" fill-opacity=".537"/></svg>