<svg xmlns="http://www.w3.org/2000/svg" height="683" viewBox="-4 0 512 512.001" width="683"><g stroke-width="2.25"><path d="M250.958 120.46c-74.737 0-135.54 60.803-135.54 135.54s60.803 135.54 135.54 135.54 135.54-60.803 135.54-135.54-60.803-135.54-135.54-135.54zm80.79 133.294l-29.017 21.082 11.083 34.11c2.955 9.09-.26 18.968-7.99 24.587-3.865 2.808-8.396 4.2-12.927 4.2s-9.058-1.402-12.923-4.213l-29.017-21.082-29.017 21.082c-7.73 5.62-18.12 5.62-25.845.004a21.94 21.94 0 0 1-7.993-24.587l11.083-34.113-29.013-21.082c-7.733-5.615-10.944-15.494-7.99-24.583a21.93 21.93 0 0 1 20.912-15.196h35.868l11.083-34.11c2.95-9.09 11.358-15.196 20.912-15.196s17.96 6.107 20.916 15.196l11.083 34.11h35.868c9.554 0 17.957 6.107 20.912 15.196s-.26 18.968-7.99 24.587zm0 0" fill="#307082" stroke="#285f70"/><path d="M256.407 228.525l-5.45-16.764-5.445 16.764c-2.955 9.09-11.358 15.196-20.916 15.196H206.97l14.263 10.363c7.73 5.615 10.94 15.494 7.99 24.583l-5.45 16.764 14.263-10.36c7.73-5.62 18.12-5.62 25.85 0l14.263 10.36-5.45-16.764a21.93 21.93 0 0 1 7.989-24.583l14.263-10.363h-17.628c-9.557 0-17.965-6.107-20.916-15.196zm0 0" fill="#894b03" stroke="#673802"/><path d="M489.802 228.056L473.08 211.33c-2.033-9.406-5.027-18.507-8.024-27.003l8.806-32.828c2.002-7.447.984-15.23-2.873-21.915s-10.088-11.47-17.54-13.465l-33.037-8.853c-6.134-6.94-12.745-13.55-19.68-19.68l-8.853-33.04c-4.105-15.292-19.932-24.46-35.36-20.408l-32.847 8.806c-8.496-2.997-17.597-5.99-27-8.02l-24.258-24.258a28.68 28.68 0 0 0-20.412-8.458 28.68 28.68 0 0 0-20.416 8.458L207.33 34.92c-9.403 2.033-18.5 5.023-27 8.02l-32.944-8.83c-15.312-3.997-31.12 5.155-35.264 20.44l-8.853 33.037c-6.94 6.13-13.55 12.745-19.68 19.68l-33.033 8.85a28.68 28.68 0 0 0-17.547 13.465c-3.853 6.688-4.876 14.468-2.873 21.9l8.8 32.847c-2.997 8.497-5.99 17.593-8.024 27.003l-16.726 16.726c-15.41 15.41-15.41 40.484 0 55.893l16.726 16.72c2.033 9.4 5.023 18.507 8.02 27.003l-8.802 32.832c-2.002 7.447-.984 15.23 2.873 21.915s10.088 11.47 17.54 13.46l33.037 8.853a226.4 226.4 0 0 0 19.68 19.681l8.853 33.04c2.014 7.517 6.835 13.78 13.573 17.628a28.48 28.48 0 0 0 21.826 2.773l32.808-8.794c8.5 2.997 17.597 5.987 27 8.02l24.258 24.254A28.67 28.67 0 0 0 252 509.792a28.68 28.68 0 0 0 20.416-8.458l24.343-25.168c9.128-1.828 18.147-4.22 26.845-7.125l32.866 8.814a28.47 28.47 0 0 0 21.818-2.738c6.742-3.85 11.57-10.123 13.593-17.663l8.853-33.037a226.93 226.93 0 0 0 19.68-19.68l33.033-8.853a28.68 28.68 0 0 0 17.547-13.465c3.857-6.684 4.876-14.468 2.873-21.9l-8.8-32.843c2.997-8.5 5.99-17.597 8.024-27.003l16.722-16.725c15.41-15.413 15.41-40.484 0-55.893zM250.958 421.29c-91.14 0-165.285-74.148-165.285-165.288S159.818 90.712 250.958 90.712 416.247 164.86 416.247 256 342.1 421.29 250.958 421.29zm0 0" fill="#307082" stroke="#285f70"/></g></svg>