<svg xmlns="http://www.w3.org/2000/svg" width="512" height="512"><rect ry="29.308" rx="26.743" y="14.387" x="13.286" height="483.227" width="485.428" fill="none" stroke="#e3852d" stroke-width="20" stroke-linejoin="round"/><g stroke-width="3"><path d="M450.322 280.31H270.055L390.11 400.364c4.59 4.59 12.14 4.96 16.858.517 29.4-27.698 49.623-65.037 55.556-107 1.018-7.187-4.946-13.56-12.2-13.56zm-12.026-49.228c-6.26-90.753-78.78-163.273-169.533-169.533C261.835 61.07 256 66.912 256 73.855v169.99h169.996c6.944 0 12.778-5.834 12.3-12.763zm-218.76 49.228V100.042c0-7.255-6.374-13.22-13.553-12.2C115.45 100.635 46.25 179.726 49.47 274.513c3.312 97.347 87.13 177.176 184.522 175.952 38.29-.48 73.667-12.816 102.756-33.45 6.002-4.254 6.397-13.1 1.193-18.293z" fill="#e3852d" stroke="#673802"/><path d="M392.82 404.245c-4.62-2.408-126.56-123.193-126.56-125.362 0-.637 41.937-1.155 93.194-1.152 89.94.006 93.367.11 98.14 3.02 8.247 5.028 8.522 13.884 1.218 39.16-8.05 27.864-25.915 58.104-45.477 76.988-9.455 9.127-13.983 10.748-20.514 7.345z" fill="#894b03" stroke="#e3852d" stroke-linejoin="round"/></g></svg>