<svg xmlns="http://www.w3.org/2000/svg" width="512" height="512"><rect width="485.428" height="483.227" x="13.286" y="14.387" rx="26.743" ry="29.308" fill="none" stroke="#e3852d" stroke-width="20" stroke-linejoin="round"/><g stroke="#593001" fill="#e3852d"><path d="M447.58 204.377L316.326 81.734c-3.496-3.266-8.31-3.266-11.807 0l-21.577 20.162-21.577-20.162c-3.496-3.266-8.31-3.266-11.807 0l-21.04 19.658-21.04-19.658c-3.496-3.266-8.31-3.266-11.807 0L64.418 204.377c-2.455 2.296-3.9 5.89-3.9 9.7v206.488c0 6.71 4.4 12.148 9.805 12.148h371.354c5.415 0 9.805-5.44 9.805-12.148V214.077c0-3.812-1.444-7.404-3.9-9.7zm-15.708 204.04h-35.35v-194.34c0-3.813-1.444-7.404-3.9-9.7l-93.395-87.266 11.195-10.46 121.45 113.482zm-89.235 0v-194.34c0-3.813-1.444-7.404-3.9-9.7L244.804 116.6l10.66-9.958 121.45 113.482v188.284h-34.277zm-125.003-.002H185.52V320.32h32.114zm19.61 0V308.17c0-6.71-4.4-12.15-9.805-12.15h-51.723c-5.415 0-9.805 5.44-9.805 12.15v100.244H80.128V220.13l121.45-113.482 121.45 113.482v188.284z" stroke-width="3.034"/><path d="M82.334 313.17l.396-91.577 58.294-54.83c32.062-30.156 59.33-54.83 60.595-54.83s28.534 24.673 60.595 54.83l58.294 54.83.79 183.154h-81.33v-49.14c0-52.216-.65-57.556-7.44-61.2-4.045-2.165-57.652-2.233-61.678-.078-7.138 3.82-7.585 7.386-7.585 60.474v49.933H81.94z" stroke-width="5" stroke-linejoin="round"/></g><path d="M399.514 309.096c0-64.4-.54-97.2-1.653-100.392-1.1-3.154-15.56-17.74-43.193-43.566l-46.803-43.426-5.262-4.602 7.595-7.118 119.998 112.33v182.424h-30.68z" fill="#975414" stroke="#894b03" stroke-width="4" stroke-linejoin="round"/></svg>