<svg xmlns="http://www.w3.org/2000/svg" width="512" height="512"><rect width="485.428" height="483.227" x="13.286" y="14.387" rx="26.743" ry="29.308" fill="none" stroke="#e3852d" stroke-width="20" stroke-linejoin="round"/><path d="M174.247 220.874c0-8.5-5.85-15.373-13.065-15.373h-79.7c-7.215 0-13.065 6.883-13.065 15.373v166.012h105.82zm134.675-71.74c0-8.5-5.85-15.373-13.065-15.373h-79.7c-7.215 0-13.065 6.883-13.065 15.373v237.753h105.82zm134.672-71.738c0-8.5-5.85-15.373-13.065-15.373h-79.7c-7.215 0-13.06 6.883-13.06 15.373v309.5h105.815zm0 0" stroke-width="3" stroke="#673802" fill="#e3852d"/><path d="M451.98 417.63H60.04c-7.215 0-13.065 6.883-13.065 15.373s5.85 15.373 13.065 15.373h391.94c7.215 0 13.065-6.883 13.065-15.373s-5.85-15.373-13.065-15.373zm0 0" fill="#307082"/><path d="M55.234 446.965c-8.142-3.87-10.352-16.05-4.347-23.957l3.655-4.814 197.704-.422 201.912.465c8.324 1.756 13.025 13.833 8.908 22.884-3.483 7.658 6.95 7.295-206.897 7.195l-200.936-1.35z" fill="#894b03" stroke="#e3852d" stroke-width="3" stroke-linejoin="round"/></svg>